<svg aria-hidden="true" style="position: absolute; width: 0; height: 0; overflow: hidden;" version="1.1" xmlns="http://www.w3.org/2000/svg" xmlns:xlink="http://www.w3.org/1999/xlink">
<defs>
<symbol id="icon-envelope" viewBox="0 0 43 32">
<path fill="#757575" style="fill: var(--color1, #757575)" d="M38.667 0h-34.667c-2.206 0-4 1.794-4 4v24c0 2.206 1.794 4 4 4h34.667c2.206 0 4-1.794 4-4v-24c0-2.206-1.794-4-4-4zM38.667 2.667c0.181 0 0.353 0.038 0.511 0.103l-17.844 15.466-17.844-15.466c0.158-0.066 0.33-0.103 0.511-0.103h34.667zM38.667 29.333h-34.667c-0.736 0-1.333-0.598-1.333-1.333v-22.413l17.793 15.421c0.251 0.217 0.563 0.326 0.874 0.326s0.622-0.108 0.874-0.326l17.793-15.421v22.413c0 0.736-0.598 1.333-1.333 1.333z"></path>
</symbol>
<symbol id="icon-smartphone" viewBox="0 0 20 32">
<path fill="#757575" style="fill: var(--color1, #757575)" d="M17 0h-14c-1.654 0-3 1.346-3 3v26c0 1.654 1.346 3 3 3h14c1.654 0 3-1.346 3-3v-26c0-1.654-1.346-3-3-3zM3 2h14c0.552 0 1 0.448 1 1v21h-16v-21c0-0.552 0.448-1 1-1zM17 30h-14c-0.552 0-1-0.448-1-1v-3h16v3c0 0.552-0.448 1-1 1z"></path>
<path fill="#757575" style="fill: var(--color1, #757575)" d="M4.707 27.478c0.391 0.365 0.391 0.956 0 1.321s-1.024 0.365-1.414 0c-0.391-0.365-0.391-0.956 0-1.321s1.024-0.365 1.414 0z"></path>
</symbol>
<symbol id="icon-logo-2" viewBox="0 0 26 32">
<path fill="#afb1b8" style="fill: var(--color2, #afb1b8)" d="M11.188 1.565h0.073c0.135 0 0.281 0.014 0.425 0.026 0.636 0.045 1.268 0.14 1.889 0.285v-1.527c-0.64-0.16-1.292-0.264-1.95-0.311-0.25-0.019-0.515-0.031-0.788-0.038h-0.228c-1.32 0.005-2.634 0.174-3.913 0.504-1.456 0.363-2.854 0.932-4.151 1.688v15.145c1.249-0.679 2.579-1.197 3.957-1.542 1.088-0.278 2.201-0.448 3.322-0.51h0.045c0.188-0.009 0.375-0.015 0.568-0.016v-1.551c-1.457 0.019-2.906 0.211-4.317 0.574-0.522 0.136-1.027 0.282-1.5 0.445l-0.54 0.183v-11.809l0.231-0.111c1.761-0.835 3.665-1.321 5.609-1.431 0.016-0.001 0.032-0.001 0.049 0 0.214-0.011 0.43-0.016 0.642-0.016h0.243c0.112 0.003 0.224 0.005 0.336 0.012z"></path>
<path fill="#afb1b8" style="fill: var(--color2, #afb1b8)" d="M14.992 3.164c-0.355 0-0.706-0.012-1.044-0.038-0.405-0.030-0.82-0.079-1.214-0.145-0.24-0.041-0.476-0.090-0.706-0.142v14.971c0.971 0.24 1.968 0.358 2.968 0.35 1.32-0.005 2.634-0.174 3.913-0.503 1.456-0.364 2.854-0.932 4.153-1.688v-14.875c-1.249 0.679-2.578 1.197-3.956 1.543-1.344 0.345-2.726 0.522-4.114 0.528zM20.979 3.423l0.54-0.182v11.813l-0.231 0.111c-0.885 0.421-1.809 0.753-2.759 0.991-1.154 0.298-2.34 0.452-3.531 0.457-0.356 0-0.71-0.015-1.052-0.045l-0.37-0.033v-12.148l0.43 0.029c0.313 0.020 0.637 0.030 0.989 0.030 1.512-0.005 3.018-0.199 4.483-0.575 0.503-0.133 1.004-0.282 1.5-0.449z"></path>
<path fill="#afb1b8" style="fill: var(--color2, #afb1b8)" d="M3.593 22.513c-0.078-0.080-0.171-0.144-0.275-0.186s-0.214-0.061-0.326-0.057c-0.119-0.002-0.237 0.021-0.347 0.065-0.101 0.040-0.193 0.101-0.27 0.178s-0.135 0.17-0.174 0.271c-0.042 0.107-0.063 0.22-0.062 0.335v2.023c-0.005 0.143 0.022 0.284 0.080 0.415 0.048 0.104 0.117 0.196 0.202 0.271 0.081 0.068 0.176 0.117 0.278 0.144 0.098 0.028 0.2 0.042 0.302 0.042 0.113 0.001 0.224-0.023 0.327-0.070 0.101-0.044 0.193-0.108 0.27-0.187 0.075-0.079 0.135-0.171 0.177-0.271 0.043-0.102 0.065-0.212 0.065-0.323v-0.226h-0.529v0.18c0.002 0.062-0.009 0.123-0.031 0.18-0.017 0.043-0.043 0.082-0.077 0.114-0.033 0.026-0.070 0.046-0.111 0.058-0.036 0.012-0.073 0.018-0.111 0.019-0.047 0.006-0.095-0.002-0.139-0.021s-0.081-0.049-0.11-0.088c-0.050-0.081-0.074-0.176-0.070-0.271v-1.887c-0.003-0.105 0.019-0.208 0.065-0.302 0.027-0.043 0.066-0.077 0.112-0.098s0.097-0.030 0.147-0.024c0.046-0.002 0.091 0.008 0.132 0.028s0.077 0.049 0.104 0.086c0.059 0.078 0.090 0.173 0.088 0.271v0.175h0.523v-0.206c0.001-0.121-0.021-0.241-0.065-0.354-0.039-0.106-0.099-0.203-0.177-0.285z"></path>
<path fill="#afb1b8" style="fill: var(--color2, #afb1b8)" d="M6.735 22.49c-0.169-0.142-0.381-0.221-0.602-0.222-0.108 0-0.215 0.020-0.316 0.057-0.103 0.037-0.197 0.093-0.279 0.165-0.088 0.079-0.158 0.175-0.205 0.283-0.053 0.124-0.080 0.257-0.077 0.392v1.941c-0.004 0.137 0.023 0.272 0.077 0.397 0.048 0.104 0.118 0.197 0.205 0.271 0.081 0.075 0.176 0.133 0.279 0.171 0.101 0.037 0.208 0.056 0.316 0.057s0.215-0.020 0.316-0.057c0.105-0.038 0.202-0.096 0.286-0.171 0.084-0.076 0.152-0.168 0.2-0.271 0.054-0.125 0.081-0.261 0.077-0.397v-1.941c0.003-0.135-0.024-0.268-0.077-0.392-0.047-0.107-0.115-0.203-0.2-0.283zM6.488 25.106c0.004 0.052-0.003 0.104-0.021 0.152s-0.047 0.092-0.084 0.128c-0.070 0.059-0.158 0.091-0.249 0.091s-0.179-0.032-0.249-0.091c-0.037-0.036-0.066-0.080-0.084-0.128s-0.025-0.101-0.021-0.152v-1.941c-0.004-0.052 0.003-0.104 0.021-0.152s0.047-0.092 0.084-0.128c0.070-0.059 0.158-0.091 0.249-0.091s0.179 0.032 0.249 0.091c0.037 0.036 0.066 0.080 0.084 0.128s0.025 0.101 0.021 0.152v1.941z"></path>
<path fill="#afb1b8" style="fill: var(--color2, #afb1b8)" d="M10.863 25.973v-3.674h-0.509l-0.668 1.945h-0.009l-0.673-1.945h-0.503v3.674h0.525v-2.235h0.009l0.514 1.58h0.262l0.518-1.58h0.009v2.235h0.525z"></path>
<path fill="#afb1b8" style="fill: var(--color2, #afb1b8)" d="M13.844 22.557c-0.081-0.091-0.183-0.16-0.297-0.201-0.123-0.040-0.251-0.059-0.38-0.057h-0.78v3.674h0.523v-1.435h0.27c0.163 0.007 0.326-0.027 0.472-0.1 0.119-0.066 0.218-0.163 0.287-0.281 0.061-0.098 0.101-0.206 0.12-0.32 0.021-0.138 0.030-0.278 0.028-0.418 0.005-0.176-0.012-0.353-0.051-0.525-0.035-0.127-0.101-0.243-0.193-0.338zM13.574 23.677c-0.002 0.067-0.019 0.132-0.049 0.191-0.030 0.056-0.077 0.102-0.135 0.129-0.078 0.035-0.162 0.050-0.247 0.046h-0.239v-1.249h0.27c0.081-0.004 0.162 0.012 0.236 0.046 0.054 0.031 0.097 0.079 0.123 0.136 0.029 0.065 0.044 0.134 0.046 0.205 0 0.077 0 0.159 0 0.244s0.005 0.174 0 0.252h-0.005z"></path>
<path fill="#afb1b8" style="fill: var(--color2, #afb1b8)" d="M16.324 22.299h-0.429l-0.81 3.674h0.524l0.154-0.789h0.714l0.154 0.789h0.523l-0.83-3.674zM15.841 24.683l0.258-1.332h0.009l0.256 1.332h-0.523z"></path>
<path fill="#afb1b8" style="fill: var(--color2, #afb1b8)" d="M19.706 24.512h-0.009l-0.791-2.213h-0.503v3.674h0.523v-2.209h0.011l0.8 2.209h0.492v-3.674h-0.523v2.213z"></path>
<path fill="#afb1b8" style="fill: var(--color2, #afb1b8)" d="M22.905 22.299l-0.421 1.461h-0.011l-0.421-1.461h-0.555l0.719 2.121v1.553h0.523v-1.553l0.719-2.121h-0.555z"></path>
<path fill="#afb1b8" style="fill: var(--color2, #afb1b8)" d="M2.133 27.010h0.252v0.708h0.171v-0.708h0.251v-0.145h-0.675v0.145z"></path>
<path fill="#afb1b8" style="fill: var(--color2, #afb1b8)" d="M4.254 26.865l-0.331 0.853h0.182l0.070-0.194h0.34l0.073 0.194h0.186l-0.339-0.853h-0.182zM4.227 27.381l0.116-0.316 0.116 0.316h-0.232z"></path>
<path fill="#afb1b8" style="fill: var(--color2, #afb1b8)" d="M6.351 27.404h0.197v0.11c-0.058 0.046-0.129 0.071-0.202 0.072-0.034 0.002-0.069-0.004-0.1-0.019s-0.059-0.036-0.081-0.063c-0.045-0.065-0.068-0.143-0.063-0.222 0-0.19 0.082-0.285 0.246-0.285 0.043-0.004 0.086 0.007 0.121 0.032s0.061 0.062 0.072 0.104l0.169-0.033c-0.036-0.167-0.156-0.251-0.362-0.251-0.11-0.003-0.216 0.036-0.298 0.11-0.043 0.042-0.076 0.094-0.097 0.15s-0.030 0.117-0.025 0.178c-0.005 0.117 0.034 0.231 0.109 0.32 0.042 0.043 0.092 0.077 0.148 0.098s0.116 0.031 0.176 0.027c0.133 0.004 0.263-0.045 0.362-0.136v-0.336h-0.37v0.144z"></path>
<path fill="#afb1b8" style="fill: var(--color2, #afb1b8)" d="M8.492 26.865h-0.173v0.853h0.598v-0.145h-0.425v-0.708z"></path>
<path fill="#afb1b8" style="fill: var(--color2, #afb1b8)" d="M10.303 26.865h-0.173v0.853h0.173v-0.853z"></path>
<path fill="#afb1b8" style="fill: var(--color2, #afb1b8)" d="M12.073 27.435l-0.349-0.57h-0.167v0.853h0.161v-0.557l0.343 0.557h0.171v-0.853h-0.158v0.57z"></path>
<path fill="#afb1b8" style="fill: var(--color2, #afb1b8)" d="M13.673 27.343h0.425v-0.145h-0.425v-0.187h0.457v-0.145h-0.63v0.853h0.648v-0.145h-0.475v-0.231z"></path>
<path fill="#afb1b8" style="fill: var(--color2, #afb1b8)" d="M17.553 27.202h-0.336v-0.336h-0.171v0.853h0.171v-0.373h0.336v0.373h0.171v-0.853h-0.171v0.336z"></path>
<path fill="#afb1b8" style="fill: var(--color2, #afb1b8)" d="M19.163 27.343h0.426v-0.145h-0.426v-0.187h0.459v-0.145h-0.63v0.853h0.646v-0.145h-0.475v-0.231z"></path>
<path fill="#afb1b8" style="fill: var(--color2, #afb1b8)" d="M21.346 27.343c0.148-0.023 0.224-0.102 0.224-0.237 0.004-0.036-0.001-0.073-0.016-0.106s-0.038-0.062-0.068-0.083c-0.077-0.039-0.163-0.056-0.25-0.050h-0.362v0.853h0.171v-0.357h0.034c0.037-0.002 0.073 0.004 0.107 0.019 0.025 0.015 0.046 0.037 0.061 0.062l0.186 0.271h0.205l-0.104-0.167c-0.046-0.082-0.111-0.153-0.189-0.205zM21.173 27.225h-0.127v-0.214h0.135c0.059-0.005 0.118 0.002 0.174 0.020 0.012 0.011 0.022 0.025 0.029 0.040s0.009 0.032 0.009 0.049c-0.001 0.017-0.005 0.033-0.013 0.048s-0.019 0.027-0.032 0.037c-0.056 0.017-0.115 0.024-0.174 0.020z"></path>
<path fill="#afb1b8" style="fill: var(--color2, #afb1b8)" d="M22.992 27.343h0.425v-0.145h-0.425v-0.187h0.459v-0.145h-0.631v0.853h0.648v-0.145h-0.475v-0.231z"></path>
</symbol>
<symbol id="icon-logo-21" viewBox="0 0 26 32">
<path fill="#afb1b8" style="fill: var(--color2, #afb1b8)" d="M11.189 1.563h0.069c0.139 0 0.283 0.016 0.427 0.027 0.64 0.048 1.269 0.144 1.888 0.288v-1.531c-0.82-0.217-1.763-0.344-2.734-0.347h-0.231c-1.317 0-2.635 0.176-3.909 0.507-1.575 0.396-2.959 0.972-4.229 1.72l0.074-0.040v15.147c2.105-1.161 4.591-1.904 7.235-2.051l0.045-0.002h0.043c0.187-0.011 0.373-0.016 0.571-0.016v-1.547c-2.091 0.022-4.088 0.392-5.947 1.053l0.128-0.040-0.539 0.181v-11.803l0.229-0.107c1.843-0.895 4.005-1.43 6.29-1.456l0.009-0h0.245l0.336 0.011z"></path>
<path fill="#afb1b8" style="fill: var(--color2, #afb1b8)" d="M14.992 3.163c-0.003 0-0.006 0-0.009 0-1.048 0-2.068-0.117-3.049-0.337l0.092 0.017v14.965c0.971 0.24 1.973 0.357 2.971 0.352 1.317-0.005 2.635-0.176 3.909-0.501 1.577-0.4 2.962-0.979 4.234-1.731l-0.074 0.040v-14.875c-1.139 0.633-2.457 1.163-3.845 1.521l-0.118 0.026c-1.344 0.341-2.72 0.517-4.107 0.523zM20.981 3.424l0.533-0.181v11.813l-0.229 0.107c-1.863 0.909-4.054 1.44-6.369 1.44-0.341 0-0.68-0.012-1.015-0.034l0.045 0.002-0.373-0.032v-12.149l0.432 0.027c0.287 0.016 0.622 0.025 0.959 0.025 2.154 0 4.22-0.373 6.139-1.057l-0.128 0.040zM3.595 22.512c-0.145-0.148-0.348-0.241-0.572-0.241-0.011 0-0.022 0-0.032 0.001l0.002-0c-0.117 0-0.235 0.021-0.347 0.064-0.3 0.12-0.508 0.408-0.508 0.745 0 0.014 0 0.028 0.001 0.041l-0-0.002v2.027c0 0.139 0.021 0.283 0.080 0.411 0.053 0.107 0.117 0.197 0.203 0.272 0.080 0.069 0.176 0.117 0.277 0.144s0.203 0.043 0.304 0.043c0.464-0.009 0.837-0.388 0.837-0.853 0-0 0-0 0-0v0-0.224h-0.533v0.176c0.005 0.064 0 0.128-0.027 0.181-0.017 0.046-0.042 0.085-0.075 0.117v0c-0.060 0.046-0.136 0.073-0.218 0.075h-0c-0.011 0.002-0.023 0.002-0.036 0.002-0.088 0-0.166-0.043-0.215-0.108l-0.001-0.001c-0.047-0.073-0.075-0.162-0.075-0.257 0-0.005 0-0.010 0-0.015l-0 0.001v-1.888c0-0.107 0.021-0.208 0.069-0.299 0.048-0.075 0.131-0.124 0.226-0.124 0.011 0 0.021 0.001 0.032 0.002l-0.001-0c0.003-0 0.006-0 0.009-0 0.092 0 0.173 0.044 0.225 0.111l0.001 0.001c0.057 0.072 0.091 0.163 0.091 0.263 0 0.001 0 0.003-0 0.004v-0 0.181h0.523v-0.208c0-0.002 0-0.005 0-0.007 0-0.243-0.091-0.465-0.241-0.634l0.001 0.001zM6.736 22.491c-0.162-0.136-0.374-0.219-0.604-0.219-0.112 0-0.22 0.020-0.32 0.055l0.007-0.002c-0.107 0.037-0.197 0.091-0.283 0.16-0.085 0.085-0.155 0.181-0.203 0.288-0.053 0.123-0.080 0.256-0.075 0.395v1.936c-0.005 0.139 0.021 0.272 0.075 0.4 0.048 0.107 0.117 0.197 0.203 0.267 0.085 0.080 0.176 0.139 0.283 0.176 0.094 0.035 0.202 0.055 0.315 0.055s0.221-0.020 0.321-0.057l-0.006 0.002c0.329-0.114 0.562-0.421 0.562-0.783 0-0.019-0.001-0.038-0.002-0.057l0 0.003v-1.941c0.001-0.011 0.001-0.024 0.001-0.038 0-0.252-0.107-0.48-0.278-0.639l-0-0zM6.491 25.104c0.001 0.009 0.001 0.020 0.001 0.031 0 0.099-0.041 0.188-0.108 0.251l-0 0c-0.067 0.055-0.153 0.089-0.248 0.089s-0.181-0.034-0.249-0.090l0.001 0c-0.067-0.063-0.108-0.153-0.108-0.252 0-0.011 0-0.022 0.002-0.033l-0 0.001v-1.936c-0.001-0.009-0.001-0.019-0.001-0.029 0-0.1 0.041-0.189 0.108-0.253l0-0c0.067-0.055 0.153-0.089 0.248-0.089s0.181 0.034 0.249 0.090l-0.001-0c0.067 0.063 0.108 0.153 0.108 0.252 0 0.011-0 0.022-0.002 0.033l0-0.001v1.936zM10.864 25.973v-3.68h-0.512l-0.667 1.947h-0.011l-0.672-1.947h-0.501v3.675h0.523v-2.24h0.011l0.512 1.584h0.267l0.517-1.579h0.005v2.235h0.528zM13.845 22.56c-0.080-0.096-0.181-0.16-0.299-0.203-0.109-0.037-0.234-0.059-0.365-0.059-0.005 0-0.010 0-0.014 0h-0.778v3.675h0.523v-1.44h0.267c0.165 0.011 0.325-0.021 0.475-0.096 0.211-0.132 0.361-0.347 0.405-0.597l0.001-0.005c0.021-0.124 0.033-0.266 0.033-0.411 0-0.187-0.020-0.369-0.057-0.545l0.003 0.017c-0.036-0.134-0.103-0.249-0.192-0.342l0 0zM13.579 23.68c-0.005 0.064-0.021 0.128-0.053 0.187-0.032 0.053-0.075 0.107-0.133 0.128-0.068 0.034-0.148 0.053-0.233 0.053-0.004 0-0.009-0-0.013-0h-0.239v-1.253h0.267c0.085 0 0.16 0.011 0.24 0.048 0.053 0.027 0.096 0.075 0.123 0.133 0.026 0.060 0.042 0.129 0.043 0.202v0.502zM16.32 22.299h-0.427l-0.8 3.675h0.523l0.155-0.789h0.709l0.16 0.789h0.517l-0.827-3.675zM15.84 24.683l0.261-1.333h0.005l0.256 1.333h-0.523zM19.707 24.512h-0.011l-0.789-2.213h-0.501v3.675h0.523v-2.208h0.011l0.795 2.208h0.491v-3.68h-0.523v2.213zM22.907 22.299l-0.427 1.461h-0.005l-0.427-1.461h-0.549l0.72 2.123v1.547h0.523v-1.547l0.72-2.123h-0.555zM2.133 27.008h0.251v0.709h0.171v-0.709h0.251v-0.144h-0.672v0.144zM4.256 26.864l-0.331 0.853h0.181l0.069-0.192h0.341l0.069 0.192h0.187l-0.336-0.853h-0.181zM4.229 27.381l0.112-0.32 0.117 0.32h-0.229zM6.347 27.403h0.203v0.107c-0.055 0.046-0.125 0.073-0.202 0.075h-0c-0.004 0-0.009 0-0.014 0-0.067 0-0.128-0.031-0.167-0.080l-0-0c-0.040-0.057-0.065-0.128-0.065-0.205 0-0.007 0-0.013 0.001-0.020l-0 0.001c0-0.187 0.080-0.283 0.245-0.283 0.005-0 0.011-0.001 0.017-0.001 0.083 0 0.154 0.056 0.175 0.133l0 0.001 0.171-0.032c-0.037-0.165-0.16-0.251-0.363-0.251-0.005-0-0.010-0-0.016-0-0.109 0-0.208 0.041-0.283 0.107l0-0c-0.077 0.076-0.124 0.18-0.124 0.296 0 0.012 0 0.024 0.002 0.036l-0-0.002c0 0.117 0.032 0.235 0.107 0.32 0.076 0.079 0.183 0.129 0.301 0.129 0.009 0 0.017-0 0.026-0.001l-0.001 0c0.133 0 0.267-0.048 0.363-0.139v-0.336h-0.373v0.144zM8.491 26.864h-0.171v0.853h0.597v-0.144h-0.427v-0.709zM10.304 26.864h-0.176v0.853h0.176v-0.853zM12.075 27.435l-0.352-0.571h-0.165v0.853h0.16v-0.555l0.341 0.555h0.171v-0.853h-0.16v0.571zM13.675 27.344h0.427v-0.144h-0.427v-0.192h0.453v-0.144h-0.629v0.853h0.651v-0.144h-0.48v-0.229zM17.552 27.2h-0.336v-0.336h-0.171v0.853h0.171v-0.373h0.336v0.373h0.171v-0.853h-0.171v0.336zM19.163 27.344h0.427v-0.144h-0.427v-0.192h0.459v-0.144h-0.629v0.853h0.645v-0.144h-0.475v-0.229zM21.344 27.344c0.149-0.027 0.224-0.107 0.224-0.24 0.001-0.007 0.001-0.016 0.001-0.024 0-0.066-0.032-0.125-0.081-0.162l-0.001-0c-0.064-0.034-0.141-0.054-0.222-0.054-0.010 0-0.020 0-0.030 0.001l0.001-0h-0.363v0.853h0.171v-0.357h0.032c0.037 0 0.075 0.005 0.107 0.021 0.027 0.016 0.053 0.037 0.064 0.064l0.187 0.267h0.203l-0.107-0.16c-0.043-0.085-0.107-0.16-0.187-0.213zM21.173 27.227h-0.128v-0.213h0.133c0.059-0.005 0.123 0 0.176 0.016 0.027 0.020 0.044 0.051 0.044 0.086 0 0.038-0.019 0.071-0.049 0.090l-0 0c-0.043 0.014-0.093 0.022-0.145 0.022-0.011 0-0.021-0-0.032-0.001l0.001 0zM22.987 27.344h0.427v-0.144h-0.427v-0.192h0.464v-0.144h-0.629v0.853h0.645v-0.144h-0.48v-0.229z"></path>
</symbol>
<symbol id="icon-icon-subscribe" viewBox="0 0 32 32">
<path fill="#fff" style="fill: var(--color3, #fff)" d="M32 0l-32 18 10.227 3.787 15.773-14.787-12 16.187v8.813l5.733-6.693 7.267 2.693 5-28z"></path>
</symbol>
<symbol id="icon-modal-close" viewBox="0 0 32 32">
<path d="M26.667 7.289l-1.956-1.956-7.822 7.822-7.822-7.822-1.956 1.956 7.822 7.822-7.822 7.822 1.956 1.956 7.822-7.822 7.822 7.822 1.956-1.956-7.822-7.822 7.822-7.822z"></path>
</symbol>
<symbol id="icon-modal-email" viewBox="0 0 32 32">
<path d="M26.667 5.333h-21.333c-1.476 0-2.667 1.191-2.667 2.667v16c0 1.458 1.191 2.667 2.667 2.667h21.333c1.458 0 2.667-1.209 2.667-2.667v-16c0-1.476-1.209-2.667-2.667-2.667zM26.133 11.004l-9.422 5.884c-0.202 0.127-0.448 0.202-0.711 0.202s-0.509-0.075-0.717-0.206l0.006 0.003-9.422-5.867c-0.364-0.195-0.607-0.572-0.607-1.006 0-0.628 0.509-1.138 1.138-1.138 0.255 0 0.491 0.084 0.681 0.226l-0.003-0.002 8.924 5.564 8.942-5.582c0.193-0.155 0.441-0.249 0.71-0.249 0.628 0 1.138 0.509 1.138 1.138 0 0.454-0.266 0.846-0.65 1.028l-0.007 0.003z"></path>
</symbol>
<symbol id="icon-modal-name" viewBox="0 0 32 32">
<path d="M16 16c2.946 0 5.333-2.388 5.333-5.333s-2.388-5.333-5.333-5.333v0c-2.946 0-5.333 2.388-5.333 5.333s2.388 5.333 5.333 5.333v0zM16 18.667c-3.556 0-10.667 1.778-10.667 5.333v1.333c0 0.729 0.604 1.333 1.333 1.333h18.667c0.729 0 1.333-0.604 1.333-1.333v-1.333c0-3.556-7.111-5.333-10.667-5.333z"></path>
</symbol>
<symbol id="icon-modal-tel" viewBox="0 0 32 32">
<path d="M24.889 19.769l-3.271-0.356c-0.782-0.107-1.564 0.178-2.116 0.711l-2.364 2.382c-3.67-1.894-6.586-4.81-8.429-8.372l-0.051-0.108 2.382-2.382c0.551-0.551 0.818-1.333 0.729-2.116l-0.356-3.236c-0.156-1.288-1.243-2.276-2.56-2.276-0.006 0-0.012 0-0.019 0h-2.221c-1.458 0-2.667 1.209-2.578 2.667 0.716 10.991 9.453 19.729 20.38 20.441l0.065 0.003c1.458 0.089 2.667-1.12 2.667-2.578v-2.222c0-1.316-0.96-2.4-2.258-2.56z"></path>
</symbol>
<symbol id="icon-teamlink3" viewBox="0 0 32 32">
<path fill="#afb1b8" style="fill: var(--color2, #afb1b8)" d="M21.328 5.312h2.923v-5.088c-1.232-0.143-2.66-0.224-4.108-0.224-0.052 0-0.104 0-0.156 0l0.008-0c-4.213 0-7.099 2.65-7.099 7.52v4.48h-4.646v5.688h4.646v14.312h5.699v-14.31h4.459l0.707-5.688h-5.168v-3.922c0-1.643 0.443-2.768 2.734-2.768z"></path>
</symbol>
<symbol id="icon-teamlink4" viewBox="0 0 32 32">
<path fill="#afb1b8" style="fill: var(--color2, #afb1b8)" d="M31.992 32h0.008v-11.738c0-5.741-1.237-10.163-7.947-10.163-3.227 0-5.392 1.77-6.277 3.45h-0.093v-2.914h-6.365v21.363h6.627v-10.578c0-2.786 0.528-5.48 3.978-5.48 3.398 0 3.448 3.179 3.448 5.658v10.402h6.621zM0.528 10.635h6.635v21.365h-6.635v-21.365zM3.843 0c-2.123 0-3.843 1.721-3.843 3.843v0c0 2.12 1.722 3.878 3.843 3.878 2.12 0 3.842-1.757 3.842-3.878s-1.72-3.841-3.841-3.843h-0z"></path>
</symbol>
<symbol id="icon-teamlink1" viewBox="0 0 32 32">
<path fill="#afb1b8" style="fill: var(--color2, #afb1b8)" d="M31.969 9.408c-0.075-1.7-0.35-2.869-0.744-3.882-0.406-1.075-1.031-2.038-1.85-2.838-0.8-0.813-1.769-1.444-2.832-1.844-1.019-0.394-2.182-0.669-3.882-0.744-1.713-0.081-2.257-0.1-6.601-0.1s-4.888 0.019-6.595 0.094c-1.7 0.075-2.869 0.35-3.882 0.744-1.075 0.406-2.038 1.031-2.838 1.85-0.813 0.8-1.444 1.769-1.844 2.832-0.394 1.019-0.669 2.182-0.744 3.882-0.081 1.713-0.1 2.257-0.1 6.601s0.019 4.888 0.094 6.595c0.075 1.7 0.35 2.869 0.744 3.882 0.406 1.075 1.038 2.038 1.85 2.838 0.8 0.813 1.769 1.444 2.832 1.844 1.019 0.394 2.182 0.669 3.882 0.744 1.706 0.075 2.25 0.094 6.595 0.094s4.888-0.019 6.595-0.094c1.7-0.075 2.869-0.35 3.882-0.744 2.151-0.832 3.851-2.532 4.682-4.682 0.394-1.019 0.669-2.182 0.744-3.882 0.075-1.707 0.094-2.251 0.094-6.595s-0.006-4.888-0.081-6.595zM29.087 22.473c-0.069 1.563-0.331 2.407-0.55 2.969-0.538 1.394-1.644 2.5-3.038 3.038-0.563 0.219-1.413 0.481-2.969 0.55-1.688 0.075-2.194 0.094-6.464 0.094s-4.782-0.019-6.464-0.094c-1.563-0.069-2.407-0.331-2.969-0.55-0.694-0.256-1.325-0.663-1.838-1.194-0.531-0.519-0.938-1.144-1.194-1.838-0.219-0.563-0.481-1.413-0.55-2.969-0.075-1.688-0.094-2.194-0.094-6.464s0.019-4.782 0.094-6.464c0.069-1.563 0.331-2.407 0.55-2.969 0.256-0.694 0.663-1.325 1.2-1.838 0.519-0.531 1.144-0.938 1.838-1.194 0.563-0.219 1.413-0.481 2.969-0.55 1.688-0.075 2.194-0.094 6.464-0.094 4.276 0 4.782 0.019 6.464 0.094 1.563 0.069 2.407 0.331 2.969 0.55 0.694 0.256 1.325 0.662 1.838 1.194 0.531 0.519 0.938 1.144 1.194 1.838 0.219 0.563 0.481 1.413 0.55 2.969 0.075 1.688 0.094 2.194 0.094 6.464s-0.019 4.77-0.094 6.458z"></path>
<path fill="#afb1b8" style="fill: var(--color2, #afb1b8)" d="M16.059 7.783c-4.538 0-8.22 3.682-8.22 8.22s3.682 8.22 8.22 8.22c4.538 0 8.22-3.682 8.22-8.22s-3.682-8.22-8.22-8.22zM16.059 21.335c-2.944 0-5.332-2.388-5.332-5.332s2.388-5.332 5.332-5.332c2.944 0 5.332 2.388 5.332 5.332s-2.388 5.332-5.332 5.332z"></path>
<path fill="#afb1b8" style="fill: var(--color2, #afb1b8)" d="M26.524 7.458c0 1.060-0.859 1.919-1.919 1.919s-1.919-0.859-1.919-1.919c0-1.060 0.859-1.919 1.919-1.919s1.919 0.859 1.919 1.919z"></path>
</symbol>
<symbol id="icon-teamlink2" viewBox="0 0 32 32">
<path fill="#afb1b8" style="fill: var(--color2, #afb1b8)" d="M32 6.078c-1.19 0.522-2.458 0.868-3.78 1.036 1.36-0.812 2.398-2.088 2.886-3.626-1.268 0.756-2.668 1.29-4.16 1.588-1.204-1.282-2.92-2.076-4.792-2.076-3.632 0-6.556 2.948-6.556 6.562 0 0.52 0.044 1.020 0.152 1.496-5.454-0.266-10.28-2.88-13.522-6.862-0.566 0.982-0.898 2.106-0.898 3.316 0 2.272 1.17 4.286 2.914 5.452-1.054-0.020-2.088-0.326-2.964-0.808 0 0.020 0 0.046 0 0.072 0 3.188 2.274 5.836 5.256 6.446-0.534 0.146-1.116 0.216-1.72 0.216-0.42 0-0.844-0.024-1.242-0.112 0.85 2.598 3.262 4.508 6.13 4.57-2.232 1.746-5.066 2.798-8.134 2.798-0.538 0-1.054-0.024-1.57-0.090 2.906 1.874 6.35 2.944 10.064 2.944 12.072 0 18.672-10 18.672-18.668 0-0.29-0.010-0.57-0.024-0.848 1.302-0.924 2.396-2.078 3.288-3.406z"></path>
</symbol>
</defs>
</svg>
