<svg aria-hidden="true" xmlns="http://www.w3.org/2000/svg" style="position:absolute;width:0;height:0" overflow="hidden"><defs><symbol id="icon-envelope" viewBox="0 0 43 32"><path  d="M38.667 0H4C1.794 0 0 1.794 0 4v24c0 2.206 1.794 4 4 4h34.667c2.206 0 4-1.794 4-4V4c0-2.206-1.794-4-4-4zm0 2.667c.181 0 .353.038.511.103L21.334 18.236 3.49 2.77a1.32 1.32 0 01.511-.103h34.667zm0 26.666H4A1.334 1.334 0 012.667 28V5.587L20.46 21.008a1.335 1.335 0 001.748 0L40.001 5.587V28c0 .736-.598 1.333-1.333 1.333z"/></symbol><symbol id="icon-smartphone" viewBox="0 0 20 32"><path  d="M17 0H3C1.346 0 0 1.346 0 3v26c0 1.654 1.346 3 3 3h14c1.654 0 3-1.346 3-3V3c0-1.654-1.346-3-3-3zM3 2h14a1 1 0 011 1v21H2V3a1 1 0 011-1zm14 28H3a1 1 0 01-1-1v-3h16v3a1 1 0 01-1 1z"/><path  d="M4.707 27.478c.391.365.391.956 0 1.321s-1.024.365-1.414 0c-.391-.365-.391-.956 0-1.321s1.024-.365 1.414 0z"/></symbol><symbol id="icon-logo-2" viewBox="0 0 26 32"><path  d="M11.188 1.565h.073c.135 0 .281.014.425.026.636.045 1.268.14 1.889.285V.349a11.38 11.38 0 00-1.95-.311A15.84 15.84 0 0010.837 0h-.228a15.9 15.9 0 00-3.913.504 15.868 15.868 0 00-4.151 1.688v15.145a16.858 16.858 0 013.957-1.542 17.273 17.273 0 013.322-.51h.045c.188-.009.375-.015.568-.016v-1.551a18.28 18.28 0 00-4.317.574c-.522.136-1.027.282-1.5.445l-.54.183V3.111L4.311 3A15.078 15.078 0 019.92 1.569a.4.4 0 01.049 0c.214-.011.43-.016.642-.016h.243c.112.003.224.005.336.012z"/><path  d="M14.992 3.164a13.679 13.679 0 01-2.258-.183c-.24-.041-.476-.09-.706-.142V17.81c.971.24 1.968.358 2.968.35a15.948 15.948 0 003.913-.503 15.943 15.943 0 004.153-1.688V1.094a16.897 16.897 0 01-3.956 1.543 16.84 16.84 0 01-4.114.528zm5.987.259l.54-.182v11.813l-.231.111c-.885.421-1.809.753-2.759.991-1.154.298-2.34.452-3.531.457-.356 0-.71-.015-1.052-.045l-.37-.033V4.387l.43.029c.313.02.637.03.989.03a18.279 18.279 0 004.483-.575 23.639 23.639 0 001.5-.449zM3.593 22.513a.807.807 0 00-.601-.243.895.895 0 00-.347.065.778.778 0 00-.444.449.893.893 0 00-.062.335v2.023a.94.94 0 00.08.415.718.718 0 00.48.415c.098.028.2.042.302.042a.855.855 0 00.839-.851v-.226h-.529v.18a.458.458 0 01-.031.18.315.315 0 01-.077.114.38.38 0 01-.222.077.266.266 0 01-.249-.109.479.479 0 01-.07-.271v-1.887a.643.643 0 01.065-.302c.027-.043.066-.077.112-.098s.097-.03.147-.024a.28.28 0 01.236.114c.059.078.09.173.088.271v.175h.523v-.206a.953.953 0 00-.242-.639zM6.735 22.49a.92.92 0 00-1.197 0 .82.82 0 00-.205.283.943.943 0 00-.077.392v1.941a.932.932 0 00.077.397.791.791 0 00.205.271.837.837 0 00.279.171.897.897 0 00.918-.171.849.849 0 00.2-.271.934.934 0 00.077-.397v-1.941a.943.943 0 00-.077-.392.867.867 0 00-.2-.283zm-.247 2.616a.355.355 0 01-.105.28.386.386 0 01-.498 0 .352.352 0 01-.105-.28v-1.941a.355.355 0 01.105-.28.386.386 0 01.498 0 .352.352 0 01.105.28v1.941zM10.863 25.973v-3.674h-.509l-.668 1.945h-.009l-.673-1.945h-.503v3.674h.525v-2.235h.009l.514 1.58h.262l.518-1.58h.009v2.235h.525zM13.844 22.557a.727.727 0 00-.297-.201 1.168 1.168 0 00-.38-.057h-.78v3.674h.523v-1.435h.27a.964.964 0 00.472-.1.759.759 0 00.287-.281.875.875 0 00.12-.32c.021-.138.03-.278.028-.418a2.107 2.107 0 00-.051-.525.785.785 0 00-.193-.338zm-.27 1.12a.45.45 0 01-.049.191.296.296 0 01-.135.129.538.538 0 01-.247.046h-.239v-1.249h.27a.506.506 0 01.236.046.3.3 0 01.123.136.537.537 0 01.046.205v.244c0 .085.005.174 0 .252h-.005zM16.324 22.299h-.429l-.81 3.674h.524l.154-.789h.714l.154.789h.523l-.83-3.674zm-.483 2.384l.258-1.332h.009l.256 1.332h-.523zM19.706 24.512h-.009l-.791-2.213h-.503v3.674h.523v-2.209h.011l.8 2.209h.492v-3.674h-.523v2.213zM22.905 22.299l-.421 1.461h-.011l-.421-1.461h-.555l.719 2.121v1.553h.523V24.42l.719-2.121h-.555zM2.133 27.01h.252v.708h.171v-.708h.251v-.145h-.675v.145zM4.254 26.865l-.331.853h.182l.07-.194h.34l.073.194h.186l-.339-.853h-.182zm-.027.516l.116-.316.116.316h-.232zM6.351 27.404h.197v.11a.332.332 0 01-.202.072c-.034.002-.069-.004-.1-.019s-.059-.036-.081-.063a.352.352 0 01-.063-.222c0-.19.082-.285.246-.285.043-.004.086.007.121.032s.061.062.072.104l.169-.033c-.036-.167-.156-.251-.362-.251a.426.426 0 00-.298.11.413.413 0 00-.122.328.465.465 0 00.109.32.408.408 0 00.324.125.513.513 0 00.362-.136v-.336h-.37v.144zM8.492 26.865h-.173v.853h.598v-.145h-.425v-.708zM10.303 26.865h-.173v.853h.173v-.853zM12.073 27.435l-.349-.57h-.167v.853h.161v-.557l.343.557h.171v-.853h-.158v.57zM13.673 27.343h.425v-.145h-.425v-.187h.457v-.145h-.63v.853h.648v-.145h-.475v-.231zM17.553 27.202h-.336v-.336h-.171v.853h.171v-.373h.336v.373h.171v-.853h-.171v.336zM19.163 27.343h.426v-.145h-.426v-.187h.459v-.145h-.63v.853h.646v-.145h-.475v-.231zM21.346 27.343c.148-.023.224-.102.224-.237a.203.203 0 00-.084-.189.479.479 0 00-.25-.05h-.362v.853h.171v-.357h.034a.231.231 0 01.107.019.181.181 0 01.061.062l.186.271h.205l-.104-.167a.6.6 0 00-.189-.205zm-.173-.118h-.127v-.214h.135a.445.445 0 01.174.02c.012.011.022.025.029.04a.116.116 0 01-.004.097.114.114 0 01-.032.037.486.486 0 01-.174.02zM22.992 27.343h.425v-.145h-.425v-.187h.459v-.145h-.631v.853h.648v-.145h-.475v-.231z"/></symbol><symbol id="icon-logo-21" viewBox="0 0 26 32"><path  d="M11.189 1.563h.069c.139 0 .283.016.427.027.64.048 1.269.144 1.888.288V.347A10.976 10.976 0 0010.839 0h-.231a15.58 15.58 0 00-3.909.507 15.828 15.828 0 00-4.229 1.72l.074-.04v15.147c2.105-1.161 4.591-1.904 7.235-2.051l.045-.002h.043c.187-.011.373-.016.571-.016v-1.547a18.278 18.278 0 00-5.947 1.053l.128-.04-.539.181V3.109l.229-.107c1.843-.895 4.005-1.43 6.29-1.456h.254l.336.011z"/><path  d="M14.992 3.163h-.009c-1.048 0-2.068-.117-3.049-.337l.092.017v14.965c.971.24 1.973.357 2.971.352a16.095 16.095 0 003.909-.501 15.88 15.88 0 004.234-1.731l-.074.04V1.093a16.465 16.465 0 01-3.845 1.521l-.118.026a16.98 16.98 0 01-4.107.523zm5.989.261l.533-.181v11.813l-.229.107c-1.863.909-4.054 1.44-6.369 1.44-.341 0-.68-.012-1.015-.034l.045.002-.373-.032V4.39l.432.027a18.248 18.248 0 007.098-1.032l-.128.04zM3.595 22.512a.8.8 0 00-.572-.241l-.032.001h.002a.969.969 0 00-.347.064.802.802 0 00-.507.786v-.002 2.027c0 .139.021.283.08.411a.85.85 0 00.203.272c.08.069.176.117.277.144s.203.043.304.043a.854.854 0 00.837-.853v-.224h-.533v.176a.342.342 0 01-.027.181.31.31 0 01-.075.117.372.372 0 01-.218.075c-.011.002-.023.002-.036.002a.27.27 0 01-.215-.108l-.001-.001a.475.475 0 01-.075-.257v-.015.001-1.888c0-.107.021-.208.069-.299a.267.267 0 01.226-.124l.032.002h-.001.009c.092 0 .173.044.225.111l.001.001a.421.421 0 01.091.263v.185h.523v-.208-.007a.952.952 0 00-.241-.634l.001.001zm3.141-.021a.939.939 0 00-.924-.164l.007-.002a.93.93 0 00-.283.16.972.972 0 00-.203.288.91.91 0 00-.075.395v1.936a.931.931 0 00.075.4.722.722 0 00.203.267c.085.08.176.139.283.176a.922.922 0 00.636-.002l-.006.002a.829.829 0 00.562-.783l-.002-.057v.003-1.941l.001-.038a.87.87 0 00-.278-.639zm-.245 2.613a.343.343 0 01-.107.282.39.39 0 01-.497-.001h.001a.345.345 0 01-.108-.252c0-.011 0-.022.002-.033v.001-1.936l-.001-.029c0-.1.041-.189.108-.253a.39.39 0 01.497.001h-.001a.345.345 0 01.108.252c0 .011 0 .022-.002.033v-.001 1.936zm4.373.869v-3.68h-.512l-.667 1.947h-.011l-.672-1.947h-.501v3.675h.523v-2.24h.011l.512 1.584h.267l.517-1.579h.005v2.235h.528zm2.981-3.413a.68.68 0 00-.299-.203 1.145 1.145 0 00-.365-.059h-.792v3.675h.523v-1.44h.267a.913.913 0 00.475-.096.887.887 0 00.405-.597l.001-.005a2.645 2.645 0 00-.024-.956l.003.017a.786.786 0 00-.192-.342zm-.266 1.12a.466.466 0 01-.053.187c-.032.053-.075.107-.133.128a.522.522 0 01-.233.053h-.252v-1.253h.267c.085 0 .16.011.24.048a.28.28 0 01.123.133c.026.06.042.129.043.202v.502zm2.741-1.381h-.427l-.8 3.675h.523l.155-.789h.709l.16.789h.517l-.827-3.675zm-.48 2.384l.261-1.333h.005l.256 1.333h-.523zm3.867-.171h-.011l-.789-2.213h-.501v3.675h.523v-2.208h.011l.795 2.208h.491v-3.68h-.523v2.213zm3.2-2.213l-.427 1.461h-.005l-.427-1.461h-.549l.72 2.123v1.547h.523v-1.547l.72-2.123h-.555zM2.133 27.008h.251v.709h.171v-.709h.251v-.144h-.672v.144zm2.123-.144l-.331.853h.181l.069-.192h.341l.069.192h.187l-.336-.853h-.181zm-.027.517l.112-.32.117.32h-.229zm2.118.022h.203v.107a.326.326 0 01-.202.075h-.014a.214.214 0 01-.167-.08.357.357 0 01-.065-.205l.001-.02v.001c0-.187.08-.283.245-.283l.017-.001c.083 0 .154.056.175.133v.001l.171-.032c-.037-.165-.16-.251-.363-.251h-.016a.427.427 0 00-.283.107.413.413 0 00-.122.332v-.002c0 .117.032.235.107.32a.418.418 0 00.301.129l.026-.001H6.36a.531.531 0 00.363-.139v-.336H6.35v.144zm2.144-.539H8.32v.853h.597v-.144H8.49v-.709zm1.813 0h-.176v.853h.176v-.853zm1.771.571l-.352-.571h-.165v.853h.16v-.555l.341.555h.171v-.853h-.16v.571zm1.6-.091h.427V27.2h-.427v-.192h.453v-.144h-.629v.853h.651v-.144h-.48v-.229zm3.877-.144h-.336v-.336h-.171v.853h.171v-.373h.336v.373h.171v-.853h-.171v.336zm1.611.144h.427V27.2h-.427v-.192h.459v-.144h-.629v.853h.645v-.144h-.475v-.229zm2.181 0c.149-.027.224-.107.224-.24l.001-.024a.203.203 0 00-.081-.162h-.001a.476.476 0 00-.222-.054l-.03.001h.001-.363v.853h.171v-.357h.032a.24.24 0 01.107.021.146.146 0 01.064.064l.187.267h.203l-.107-.16a.557.557 0 00-.187-.213zm-.171-.117h-.128v-.213h.133a.49.49 0 01.176.016.107.107 0 01-.005.176.474.474 0 01-.145.022l-.032-.001h.001zm1.814.117h.427V27.2h-.427v-.192h.464v-.144h-.629v.853h.645v-.144h-.48v-.229z"/></symbol><symbol id="icon-icon-subscribe" viewBox="0 0 32 32"><path  d="M32 0L0 18l10.227 3.787L26 7 14 23.187V32l5.733-6.693L27 28l5-28z"/></symbol><symbol id="icon-modal-close" viewBox="0 0 32 32"><path d="M26.667 7.289l-1.956-1.956-7.822 7.822-7.822-7.822-1.956 1.956 7.822 7.822-7.822 7.822 1.956 1.956 7.822-7.822 7.822 7.822 1.956-1.956-7.822-7.822 7.822-7.822z"/></symbol><symbol id="icon-modal-email" viewBox="0 0 32 32"><path d="M26.667 5.333H5.334A2.663 2.663 0 002.667 8v16a2.675 2.675 0 002.667 2.667h21.333A2.686 2.686 0 0029.334 24V8a2.675 2.675 0 00-2.667-2.667zm-.534 5.671l-9.422 5.884c-.202.127-.448.202-.711.202s-.509-.075-.717-.206l.006.003-9.422-5.867a1.139 1.139 0 111.212-1.918L7.076 9.1 16 14.664l8.942-5.582a1.138 1.138 0 111.198 1.917l-.007.003z"/></symbol><symbol id="icon-modal-name" viewBox="0 0 32 32"><path d="M16 16a5.333 5.333 0 100-10.666A5.333 5.333 0 1016 16zm0 2.667c-3.556 0-10.667 1.778-10.667 5.333v1.333c0 .729.604 1.333 1.333 1.333h18.667c.729 0 1.333-.604 1.333-1.333V24c0-3.556-7.111-5.333-10.667-5.333z"/></symbol><symbol id="icon-modal-tel" viewBox="0 0 32 32"><path d="M24.889 19.769l-3.271-.356a2.57 2.57 0 00-2.116.711l-2.364 2.382c-3.67-1.894-6.586-4.81-8.429-8.372l-.051-.108 2.382-2.382a2.58 2.58 0 00.729-2.116l-.356-3.236a2.58 2.58 0 00-2.56-2.276h-2.24c-1.458 0-2.667 1.209-2.578 2.667.716 10.991 9.453 19.729 20.38 20.441l.065.003c1.458.089 2.667-1.12 2.667-2.578v-2.222c0-1.316-.96-2.4-2.258-2.56z"/></symbol><symbol id="icon-teamlink3" viewBox="0 0 32 32"><path  d="M21.328 5.312h2.923V.224A36.483 36.483 0 0020.143 0h-.156.008c-4.213 0-7.099 2.65-7.099 7.52V12H8.25v5.688h4.646V32h5.699V17.69h4.459l.707-5.688h-5.168V8.08c0-1.643.443-2.768 2.734-2.768z"/></symbol><symbol id="icon-teamlink4" viewBox="0 0 32 32"><path  d="M31.992 32H32V20.262c0-5.741-1.237-10.163-7.947-10.163-3.227 0-5.392 1.77-6.277 3.45h-.093v-2.914h-6.365v21.363h6.627V21.42c0-2.786.528-5.48 3.978-5.48 3.398 0 3.448 3.179 3.448 5.658V32h6.621zM.528 10.635h6.635V32H.528V10.635zM3.843 0A3.843 3.843 0 000 3.843c0 2.12 1.722 3.878 3.843 3.878 2.12 0 3.842-1.757 3.842-3.878S5.965.002 3.844 0z"/></symbol><symbol id="icon-teamlink1" viewBox="0 0 32 32"><path  d="M31.969 9.408c-.075-1.7-.35-2.869-.744-3.882a7.803 7.803 0 00-1.85-2.838A7.867 7.867 0 0026.543.844C25.524.45 24.361.175 22.661.1 20.948.019 20.404 0 16.06 0s-4.888.019-6.595.094c-1.7.075-2.869.35-3.882.744a7.803 7.803 0 00-2.838 1.85A7.867 7.867 0 00.901 5.52C.507 6.539.232 7.702.157 9.402c-.081 1.713-.1 2.257-.1 6.601s.019 4.888.094 6.595c.075 1.7.35 2.869.744 3.882a7.895 7.895 0 001.85 2.838 7.867 7.867 0 002.832 1.844c1.019.394 2.182.669 3.882.744 1.706.075 2.25.094 6.595.094s4.888-.019 6.595-.094c1.7-.075 2.869-.35 3.882-.744a8.184 8.184 0 004.682-4.682c.394-1.019.669-2.182.744-3.882.075-1.707.094-2.251.094-6.595s-.006-4.888-.081-6.595zm-2.882 13.065c-.069 1.563-.331 2.407-.55 2.969a5.31 5.31 0 01-3.038 3.038c-.563.219-1.413.481-2.969.55-1.688.075-2.194.094-6.464.094s-4.782-.019-6.464-.094c-1.563-.069-2.407-.331-2.969-.55a4.926 4.926 0 01-1.838-1.194 4.974 4.974 0 01-1.194-1.838c-.219-.563-.481-1.413-.55-2.969-.075-1.688-.094-2.194-.094-6.464s.019-4.782.094-6.464c.069-1.563.331-2.407.55-2.969a4.868 4.868 0 011.2-1.838A4.974 4.974 0 016.639 3.55c.563-.219 1.413-.481 2.969-.55 1.688-.075 2.194-.094 6.464-.094 4.276 0 4.782.019 6.464.094 1.563.069 2.407.331 2.969.55a4.914 4.914 0 011.838 1.194 4.974 4.974 0 011.194 1.838c.219.563.481 1.413.55 2.969.075 1.688.094 2.194.094 6.464s-.019 4.77-.094 6.458z"/><path  d="M16.059 7.783c-4.538 0-8.22 3.682-8.22 8.22s3.682 8.22 8.22 8.22 8.22-3.682 8.22-8.22-3.682-8.22-8.22-8.22zm0 13.552a5.333 5.333 0 010-10.664 5.333 5.333 0 010 10.664zM26.524 7.458a1.919 1.919 0 11-3.838 0 1.919 1.919 0 013.838 0z"/></symbol><symbol id="icon-teamlink2" viewBox="0 0 32 32"><path  d="M32 6.078c-1.19.522-2.458.868-3.78 1.036a6.523 6.523 0 002.886-3.626 13.11 13.11 0 01-4.16 1.588A6.574 6.574 0 0022.154 3c-3.632 0-6.556 2.948-6.556 6.562 0 .52.044 1.02.152 1.496-5.454-.266-10.28-2.88-13.522-6.862a6.605 6.605 0 00-.898 3.316 6.57 6.57 0 002.914 5.452 6.479 6.479 0 01-2.964-.808v.072c0 3.188 2.274 5.836 5.256 6.446a6.548 6.548 0 01-1.72.216 5.8 5.8 0 01-1.242-.112c.85 2.598 3.262 4.508 6.13 4.57a13.182 13.182 0 01-8.134 2.798c-.538 0-1.054-.024-1.57-.09A18.469 18.469 0 0010.064 29c12.072 0 18.672-10 18.672-18.668 0-.29-.01-.57-.024-.848A13.087 13.087 0 0032 6.078z"/></symbol>

<symbol id="icon-logo1" viewBox="0 0 29 32">
            <path d="M3.84 0l4.677 4.428h13.046v12.351l4.677 4.428v-21.206h-22.4z"></path>
            <path
                d="M0 4.241v20.6h21.76v-8.188l-13.105-12.406-8.655-0.005zM17.615 21.828h-14.172v-13.854h1.002v12.916h13.17v0.938z">
            </path>
            <path
                d="M6.266 28.662l0.523-1.078h0.438l-0.763 1.438v0.837h-0.397v-0.837l-0.764-1.438h0.439l0.523 1.078zM8.513 29.329h-0.881l-0.184 0.53h-0.411l0.859-2.275h0.355l0.861 2.275h-0.412l-0.186-0.53zM7.743 29.010h0.659l-0.33-0.944-0.33 0.944zM10.071 29.244c0-0.105 0.029-0.202 0.086-0.289 0.057-0.089 0.17-0.193 0.339-0.314-0.088-0.111-0.151-0.206-0.186-0.284s-0.052-0.154-0.052-0.227c0-0.178 0.054-0.319 0.162-0.422s0.254-0.156 0.438-0.156c0.166 0 0.301 0.049 0.406 0.147 0.106 0.097 0.159 0.217 0.159 0.361 0 0.095-0.024 0.182-0.072 0.262-0.048 0.079-0.127 0.158-0.236 0.238l-0.155 0.113 0.439 0.519c0.064-0.125 0.095-0.264 0.095-0.417h0.33c0 0.28-0.066 0.51-0.197 0.689l0.334 0.395h-0.441l-0.128-0.152c-0.162 0.122-0.356 0.183-0.581 0.183s-0.405-0.059-0.541-0.178c-0.134-0.12-0.202-0.276-0.202-0.467zM10.824 29.587c0.128 0 0.248-0.043 0.359-0.128l-0.497-0.586-0.048 0.034c-0.125 0.095-0.188 0.203-0.188 0.325 0 0.105 0.034 0.191 0.102 0.256s0.158 0.098 0.272 0.098zM10.615 28.121c0 0.087 0.054 0.197 0.161 0.33l0.173-0.119 0.048-0.039c0.065-0.057 0.097-0.131 0.097-0.22 0-0.059-0.022-0.11-0.067-0.152-0.045-0.043-0.102-0.064-0.17-0.064-0.074 0-0.133 0.025-0.177 0.075s-0.066 0.113-0.066 0.189zM14.748 29.118c-0.023 0.243-0.113 0.432-0.269 0.569-0.156 0.135-0.364 0.203-0.623 0.203-0.181 0-0.341-0.043-0.48-0.128-0.137-0.086-0.244-0.209-0.319-0.367s-0.114-0.342-0.117-0.552v-0.212c0-0.215 0.038-0.404 0.114-0.567s0.185-0.29 0.327-0.378c0.143-0.088 0.307-0.133 0.494-0.133 0.251 0 0.453 0.068 0.606 0.205s0.242 0.329 0.267 0.578h-0.394c-0.019-0.164-0.067-0.281-0.144-0.353-0.076-0.073-0.188-0.109-0.336-0.109-0.172 0-0.304 0.063-0.397 0.189-0.092 0.125-0.139 0.309-0.141 0.552v0.202c0 0.246 0.044 0.433 0.131 0.563s0.218 0.194 0.387 0.194c0.155 0 0.272-0.035 0.35-0.105s0.128-0.186 0.148-0.348h0.394zM16.918 28.78c0 0.223-0.039 0.419-0.116 0.588-0.077 0.168-0.188 0.297-0.331 0.388-0.143 0.090-0.307 0.134-0.494 0.134-0.184 0-0.349-0.045-0.494-0.134-0.144-0.091-0.255-0.219-0.334-0.386-0.078-0.167-0.118-0.359-0.119-0.576v-0.128c0-0.222 0.039-0.418 0.117-0.588 0.079-0.17 0.19-0.299 0.333-0.389 0.144-0.091 0.308-0.136 0.494-0.136s0.349 0.045 0.492 0.134c0.144 0.088 0.255 0.217 0.333 0.384s0.118 0.361 0.119 0.583v0.127zM16.523 28.662c0-0.252-0.048-0.445-0.144-0.58-0.095-0.134-0.23-0.202-0.405-0.202-0.171 0-0.305 0.067-0.402 0.202-0.096 0.133-0.145 0.322-0.147 0.567v0.131c0 0.25 0.048 0.443 0.145 0.58s0.233 0.205 0.406 0.205c0.175 0 0.309-0.067 0.403-0.2 0.095-0.133 0.142-0.328 0.142-0.584v-0.119z">
            </path>
        </symbol>
        <symbol id="icon-logo2" viewBox="0 0 26 32">
        
            <path 
                d="M11.188 1.565h0.073c0.135 0 0.281 0.014 0.425 0.026 0.636 0.045 1.268 0.14 1.889 0.285v-1.527c-0.64-0.16-1.292-0.264-1.95-0.311-0.25-0.019-0.515-0.031-0.788-0.038h-0.228c-1.32 0.005-2.634 0.174-3.913 0.504-1.456 0.363-2.854 0.932-4.151 1.688v15.145c1.249-0.679 2.579-1.197 3.957-1.542 1.088-0.278 2.201-0.448 3.322-0.51h0.045c0.188-0.009 0.375-0.015 0.568-0.016v-1.551c-1.457 0.019-2.906 0.211-4.317 0.574-0.522 0.136-1.027 0.282-1.5 0.445l-0.54 0.183v-11.809l0.231-0.111c1.761-0.835 3.665-1.321 5.609-1.431 0.016-0.001 0.032-0.001 0.049 0 0.214-0.011 0.43-0.016 0.642-0.016h0.243c0.112 0.003 0.224 0.005 0.336 0.012z">
            </path>
            <path
                d="M14.992 3.164c-0.355 0-0.706-0.012-1.044-0.038-0.405-0.030-0.82-0.079-1.214-0.145-0.24-0.041-0.476-0.090-0.706-0.142v14.971c0.971 0.24 1.968 0.358 2.968 0.35 1.32-0.005 2.634-0.174 3.913-0.503 1.456-0.364 2.854-0.932 4.153-1.688v-14.875c-1.249 0.679-2.578 1.197-3.956 1.543-1.344 0.345-2.726 0.522-4.114 0.528zM20.979 3.423l0.54-0.182v11.813l-0.231 0.111c-0.885 0.421-1.809 0.753-2.759 0.991-1.154 0.298-2.34 0.452-3.531 0.457-0.356 0-0.71-0.015-1.052-0.045l-0.37-0.033v-12.148l0.43 0.029c0.313 0.020 0.637 0.030 0.989 0.030 1.512-0.005 3.018-0.199 4.483-0.575 0.503-0.133 1.004-0.282 1.5-0.449z">
            </path>
            <path
                d="M3.593 22.513c-0.078-0.080-0.171-0.144-0.275-0.186s-0.214-0.061-0.326-0.057c-0.119-0.002-0.237 0.021-0.347 0.065-0.101 0.040-0.193 0.101-0.27 0.178s-0.135 0.17-0.174 0.271c-0.042 0.107-0.063 0.22-0.062 0.335v2.023c-0.005 0.143 0.022 0.284 0.080 0.415 0.048 0.104 0.117 0.196 0.202 0.271 0.081 0.068 0.176 0.117 0.278 0.144 0.098 0.028 0.2 0.042 0.302 0.042 0.113 0.001 0.224-0.023 0.327-0.070 0.101-0.044 0.193-0.108 0.27-0.187 0.075-0.079 0.135-0.171 0.177-0.271 0.043-0.102 0.065-0.212 0.065-0.323v-0.226h-0.529v0.18c0.002 0.062-0.009 0.123-0.031 0.18-0.017 0.043-0.043 0.082-0.077 0.114-0.033 0.026-0.070 0.046-0.111 0.058-0.036 0.012-0.073 0.018-0.111 0.019-0.047 0.006-0.095-0.002-0.139-0.021s-0.081-0.049-0.11-0.088c-0.050-0.081-0.074-0.176-0.070-0.271v-1.887c-0.003-0.105 0.019-0.208 0.065-0.302 0.027-0.043 0.066-0.077 0.112-0.098s0.097-0.030 0.147-0.024c0.046-0.002 0.091 0.008 0.132 0.028s0.077 0.049 0.104 0.086c0.059 0.078 0.090 0.173 0.088 0.271v0.175h0.523v-0.206c0.001-0.121-0.021-0.241-0.065-0.354-0.039-0.106-0.099-0.203-0.177-0.285z">
            </path>
            <path
                d="M6.735 22.49c-0.169-0.142-0.381-0.221-0.602-0.222-0.108 0-0.215 0.020-0.316 0.057-0.103 0.037-0.197 0.093-0.279 0.165-0.088 0.079-0.158 0.175-0.205 0.283-0.053 0.124-0.080 0.257-0.077 0.392v1.941c-0.004 0.137 0.023 0.272 0.077 0.397 0.048 0.104 0.118 0.197 0.205 0.271 0.081 0.075 0.176 0.133 0.279 0.171 0.101 0.037 0.208 0.056 0.316 0.057s0.215-0.020 0.316-0.057c0.105-0.038 0.202-0.096 0.286-0.171 0.084-0.076 0.152-0.168 0.2-0.271 0.054-0.125 0.081-0.261 0.077-0.397v-1.941c0.003-0.135-0.024-0.268-0.077-0.392-0.047-0.107-0.115-0.203-0.2-0.283zM6.488 25.106c0.004 0.052-0.003 0.104-0.021 0.152s-0.047 0.092-0.084 0.128c-0.070 0.059-0.158 0.091-0.249 0.091s-0.179-0.032-0.249-0.091c-0.037-0.036-0.066-0.080-0.084-0.128s-0.025-0.101-0.021-0.152v-1.941c-0.004-0.052 0.003-0.104 0.021-0.152s0.047-0.092 0.084-0.128c0.070-0.059 0.158-0.091 0.249-0.091s0.179 0.032 0.249 0.091c0.037 0.036 0.066 0.080 0.084 0.128s0.025 0.101 0.021 0.152v1.941z">
            </path>
            <path
                d="M10.863 25.973v-3.674h-0.509l-0.668 1.945h-0.009l-0.673-1.945h-0.503v3.674h0.525v-2.235h0.009l0.514 1.58h0.262l0.518-1.58h0.009v2.235h0.525z">
            </path>
            <path
                d="M13.844 22.557c-0.081-0.091-0.183-0.16-0.297-0.201-0.123-0.040-0.251-0.059-0.38-0.057h-0.78v3.674h0.523v-1.435h0.27c0.163 0.007 0.326-0.027 0.472-0.1 0.119-0.066 0.218-0.163 0.287-0.281 0.061-0.098 0.101-0.206 0.12-0.32 0.021-0.138 0.030-0.278 0.028-0.418 0.005-0.176-0.012-0.353-0.051-0.525-0.035-0.127-0.101-0.243-0.193-0.338zM13.574 23.677c-0.002 0.067-0.019 0.132-0.049 0.191-0.030 0.056-0.077 0.102-0.135 0.129-0.078 0.035-0.162 0.050-0.247 0.046h-0.239v-1.249h0.27c0.081-0.004 0.162 0.012 0.236 0.046 0.054 0.031 0.097 0.079 0.123 0.136 0.029 0.065 0.044 0.134 0.046 0.205 0 0.077 0 0.159 0 0.244s0.005 0.174 0 0.252h-0.005z">
            </path>
            <path
                d="M16.324 22.299h-0.429l-0.81 3.674h0.524l0.154-0.789h0.714l0.154 0.789h0.523l-0.83-3.674zM15.841 24.683l0.258-1.332h0.009l0.256 1.332h-0.523z">
            </path>
            <path
                d="M19.706 24.512h-0.009l-0.791-2.213h-0.503v3.674h0.523v-2.209h0.011l0.8 2.209h0.492v-3.674h-0.523v2.213z">
            </path>
            <path
                d="M22.905 22.299l-0.421 1.461h-0.011l-0.421-1.461h-0.555l0.719 2.121v1.553h0.523v-1.553l0.719-2.121h-0.555z">
            </path>
            <path d="M2.133 27.010h0.252v0.708h0.171v-0.708h0.251v-0.145h-0.675v0.145z"></path>
            <path
                d="M4.254 26.865l-0.331 0.853h0.182l0.070-0.194h0.34l0.073 0.194h0.186l-0.339-0.853h-0.182zM4.227 27.381l0.116-0.316 0.116 0.316h-0.232z">
            </path>
            <path
                d="M6.351 27.404h0.197v0.11c-0.058 0.046-0.129 0.071-0.202 0.072-0.034 0.002-0.069-0.004-0.1-0.019s-0.059-0.036-0.081-0.063c-0.045-0.065-0.068-0.143-0.063-0.222 0-0.19 0.082-0.285 0.246-0.285 0.043-0.004 0.086 0.007 0.121 0.032s0.061 0.062 0.072 0.104l0.169-0.033c-0.036-0.167-0.156-0.251-0.362-0.251-0.11-0.003-0.216 0.036-0.298 0.11-0.043 0.042-0.076 0.094-0.097 0.15s-0.030 0.117-0.025 0.178c-0.005 0.117 0.034 0.231 0.109 0.32 0.042 0.043 0.092 0.077 0.148 0.098s0.116 0.031 0.176 0.027c0.133 0.004 0.263-0.045 0.362-0.136v-0.336h-0.37v0.144z">
            </path>
            <path d="M8.492 26.865h-0.173v0.853h0.598v-0.145h-0.425v-0.708z"></path>
            <path d="M10.303 26.865h-0.173v0.853h0.173v-0.853z"></path>
            <path d="M12.073 27.435l-0.349-0.57h-0.167v0.853h0.161v-0.557l0.343 0.557h0.171v-0.853h-0.158v0.57z"></path>
            <path d="M13.673 27.343h0.425v-0.145h-0.425v-0.187h0.457v-0.145h-0.63v0.853h0.648v-0.145h-0.475v-0.231z">
            </path>
            <path d="M17.553 27.202h-0.336v-0.336h-0.171v0.853h0.171v-0.373h0.336v0.373h0.171v-0.853h-0.171v0.336z">
            </path>
            <path d="M19.163 27.343h0.426v-0.145h-0.426v-0.187h0.459v-0.145h-0.63v0.853h0.646v-0.145h-0.475v-0.231z">
            </path>
            <path
                d="M21.346 27.343c0.148-0.023 0.224-0.102 0.224-0.237 0.004-0.036-0.001-0.073-0.016-0.106s-0.038-0.062-0.068-0.083c-0.077-0.039-0.163-0.056-0.25-0.050h-0.362v0.853h0.171v-0.357h0.034c0.037-0.002 0.073 0.004 0.107 0.019 0.025 0.015 0.046 0.037 0.061 0.062l0.186 0.271h0.205l-0.104-0.167c-0.046-0.082-0.111-0.153-0.189-0.205zM21.173 27.225h-0.127v-0.214h0.135c0.059-0.005 0.118 0.002 0.174 0.020 0.012 0.011 0.022 0.025 0.029 0.040s0.009 0.032 0.009 0.049c-0.001 0.017-0.005 0.033-0.013 0.048s-0.019 0.027-0.032 0.037c-0.056 0.017-0.115 0.024-0.174 0.020z">
            </path>
            <path d="M22.992 27.343h0.425v-0.145h-0.425v-0.187h0.459v-0.145h-0.631v0.853h0.648v-0.145h-0.475v-0.231z">
            </path>
        </symbol>
        <symbol id="icon-logo3" viewBox="0 0 31 32">
            <path
                d="M4.722 31.103c0.011 0 0.022 0.003 0.032 0.007s0.019 0.011 0.027 0.018l0.153 0.161c-0.119 0.13-0.266 0.234-0.431 0.305-0.193 0.077-0.401 0.115-0.611 0.109-0.197 0.004-0.392-0.031-0.574-0.102-0.164-0.065-0.312-0.164-0.433-0.288-0.123-0.129-0.218-0.28-0.279-0.445-0.067-0.184-0.1-0.377-0.098-0.571-0.003-0.195 0.033-0.39 0.105-0.573 0.067-0.166 0.168-0.317 0.297-0.445 0.131-0.126 0.287-0.224 0.459-0.29 0.189-0.070 0.389-0.104 0.591-0.102 0.188-0.004 0.375 0.027 0.549 0.093 0.152 0.063 0.291 0.15 0.412 0.257l-0.128 0.171c-0.009 0.012-0.020 0.023-0.033 0.031-0.015 0.010-0.033 0.014-0.052 0.013-0.020-0.001-0.039-0.008-0.056-0.018l-0.069-0.046-0.096-0.058c-0.041-0.022-0.084-0.041-0.128-0.057-0.057-0.019-0.115-0.035-0.174-0.046-0.075-0.013-0.151-0.019-0.228-0.018-0.146-0.002-0.29 0.024-0.425 0.077-0.126 0.048-0.239 0.122-0.333 0.215-0.095 0.099-0.169 0.216-0.216 0.343-0.054 0.145-0.080 0.298-0.078 0.452-0.002 0.156 0.024 0.312 0.078 0.46 0.047 0.126 0.119 0.242 0.212 0.341 0.088 0.093 0.196 0.165 0.318 0.212 0.125 0.049 0.259 0.074 0.394 0.073 0.078 0.001 0.156-0.004 0.234-0.015 0.126-0.015 0.247-0.056 0.354-0.122 0.054-0.034 0.104-0.072 0.151-0.113 0.020-0.018 0.046-0.028 0.073-0.029z">
            </path>
            <path
                d="M9.144 30.296c0.002 0.194-0.033 0.386-0.103 0.567-0.062 0.165-0.161 0.315-0.288 0.44s-0.282 0.224-0.452 0.289c-0.375 0.136-0.789 0.136-1.164 0-0.169-0.066-0.323-0.165-0.45-0.29-0.128-0.128-0.227-0.279-0.291-0.445-0.138-0.367-0.138-0.769 0-1.136 0.065-0.166 0.164-0.317 0.291-0.447 0.128-0.121 0.281-0.216 0.45-0.279 0.374-0.139 0.79-0.139 1.164 0 0.17 0.066 0.324 0.165 0.452 0.29 0.126 0.127 0.224 0.276 0.289 0.44 0.071 0.183 0.106 0.376 0.103 0.571zM8.742 30.296c0.003-0.155-0.022-0.309-0.073-0.456-0.043-0.126-0.113-0.242-0.205-0.341-0.090-0.094-0.2-0.167-0.323-0.215-0.272-0.1-0.574-0.1-0.846 0-0.123 0.048-0.234 0.121-0.324 0.215-0.093 0.098-0.164 0.215-0.207 0.341-0.097 0.297-0.097 0.615 0 0.912 0.043 0.126 0.114 0.242 0.207 0.341 0.090 0.093 0.2 0.166 0.324 0.213 0.273 0.097 0.573 0.097 0.846 0 0.123-0.047 0.234-0.12 0.323-0.213 0.092-0.099 0.162-0.215 0.205-0.341 0.051-0.147 0.076-0.301 0.073-0.456z">
            </path>
            <path
                d="M12.161 30.774l0.040 0.102c0.015-0.036 0.029-0.069 0.044-0.102 0.015-0.034 0.031-0.068 0.050-0.1l0.978-1.694c0.019-0.029 0.036-0.047 0.056-0.053 0.026-0.008 0.053-0.011 0.080-0.009h0.289v2.755h-0.343v-2.026c0-0.026 0-0.055 0-0.086-0.002-0.032-0.002-0.063 0-0.095l-0.984 1.718c-0.012 0.026-0.033 0.047-0.058 0.063s-0.054 0.023-0.084 0.023h-0.056c-0.030 0-0.059-0.007-0.084-0.023s-0.045-0.037-0.057-0.063l-1.013-1.729c0 0.033 0 0.066 0 0.099s0 0.062 0 0.088v2.026h-0.331v-2.75h0.289c0.027-0.002 0.054 0.002 0.080 0.009 0.024 0.011 0.043 0.030 0.054 0.053l0.999 1.696c0.020 0.031 0.036 0.064 0.050 0.098z">
            </path>
            <path
                d="M15.842 30.638v1.032h-0.383v-2.752h0.854c0.161-0.003 0.322 0.017 0.477 0.060 0.124 0.033 0.239 0.092 0.337 0.171 0.085 0.075 0.151 0.167 0.191 0.27 0.045 0.112 0.067 0.232 0.065 0.352 0.002 0.121-0.022 0.24-0.071 0.352-0.046 0.106-0.117 0.2-0.207 0.275-0.098 0.083-0.214 0.145-0.339 0.182-0.149 0.045-0.305 0.067-0.461 0.064l-0.463-0.007zM15.842 30.342h0.463c0.101 0.001 0.201-0.013 0.297-0.042 0.079-0.025 0.152-0.066 0.214-0.119 0.058-0.050 0.102-0.113 0.13-0.182 0.031-0.074 0.047-0.152 0.046-0.232 0.004-0.076-0.009-0.153-0.038-0.224s-0.075-0.135-0.134-0.188c-0.146-0.109-0.33-0.162-0.515-0.148h-0.463v1.134z">
            </path>
            <path
                d="M20.987 31.673h-0.302c-0.030 0.001-0.060-0.008-0.084-0.026-0.022-0.017-0.039-0.039-0.050-0.064l-0.26-0.666h-1.307l-0.27 0.666c-0.010 0.024-0.026 0.046-0.048 0.062-0.024 0.019-0.055 0.028-0.086 0.027h-0.302l1.148-2.756h0.398l1.164 2.756zM19.092 30.65h1.080l-0.456-1.122c-0.035-0.084-0.064-0.171-0.086-0.259l-0.044 0.144c-0.013 0.044-0.029 0.084-0.042 0.117l-0.452 1.12z">
            </path>
            <path
                d="M22.641 28.931c0.023 0.012 0.043 0.029 0.057 0.049l1.675 2.077c0-0.033 0-0.066 0-0.097s0-0.062 0-0.091v-1.951h0.343v2.756h-0.191c-0.027 0.001-0.054-0.005-0.078-0.016-0.024-0.013-0.044-0.030-0.061-0.051l-1.673-2.075c0.002 0.032 0.002 0.063 0 0.095 0 0.031 0 0.058 0 0.084v1.964h-0.343v-2.756h0.203c0.024-0.001 0.047 0.004 0.069 0.013z">
            </path>
            <path
                d="M27.537 30.577v1.094h-0.383v-1.094l-1.059-1.66h0.343c0.029-0.002 0.059 0.007 0.082 0.024 0.021 0.018 0.038 0.039 0.052 0.062l0.662 1.071c0.027 0.046 0.050 0.088 0.069 0.128s0.034 0.078 0.048 0.117l0.050-0.119c0.019-0.043 0.040-0.085 0.065-0.126l0.653-1.078c0.014-0.021 0.030-0.041 0.050-0.058 0.023-0.019 0.052-0.029 0.082-0.027h0.346l-1.060 1.667z">
            </path>
            <path
                d="M11.971 24.293c0.167 0.020 0.335 0.036 0.505 0.051 2.583-1.101 4.768-2.902 6.282-5.18s2.29-4.929 2.231-7.624l-2.846-2.712c0.579 2.869 0.308 5.836-0.782 8.567s-2.956 5.12-5.389 6.898z">
            </path>
            <path
                d="M10.955 24.167l0.077 0.015c2.6-1.772 4.583-4.247 5.691-7.104s1.292-5.965 0.526-8.922l-4.054-3.862c1.64 3.175 2.3 6.728 1.903 10.246s-1.833 6.857-4.143 9.628z">
            </path>
            <path
                d="M24.704 14.725c-0.689 2.961-2.362 5.632-4.77 7.616-0.703 0.582-1.462 1.101-2.266 1.55 1.961-0.549 3.764-1.52 5.269-2.838s2.672-2.947 3.412-4.763l-1.644-1.565z">
            </path>
            <path
                d="M24.059 14.289l-2.341-2.23c-0.045 2.543-0.803 5.028-2.197 7.197s-3.372 3.943-5.729 5.137h0.011c0.525-0 1.050-0.030 1.572-0.089 2.203-0.857 4.148-2.219 5.664-3.967s2.553-3.825 3.021-6.047z">
            </path>
            <path
                d="M11.294 2.664l-2.793-2.664c-2.497 0.919-4.644 2.535-6.161 4.636s-2.332 4.589-2.34 7.139v0c0.009 2.818 1.005 5.552 2.829 7.77s4.372 3.793 7.242 4.476c2.561-2.973 4.061-6.647 4.281-10.488s-0.851-7.648-3.058-10.869z">
            </path>
            <path
                d="M30.512 13.878c-0.010-3.343-1.409-6.546-3.89-8.91s-5.843-3.696-9.352-3.706c-1.621-0.002-3.229 0.283-4.741 0.841l17.099 16.291c0.585-1.44 0.885-2.971 0.884-4.515z">
            </path>
        </symbol>
        <symbol id="icon-logo4" viewBox="0 0 60 32">
            <path
                d="M9.229 9.548h-0.002c-1.684 0-3.048 1.33-3.048 2.971v0.002c0 1.641 1.365 2.971 3.048 2.971h0.002c1.684 0 3.048-1.33 3.048-2.971v-0.002c0-1.641-1.365-2.971-3.048-2.971z">
            </path>
            <path
                d="M31.73 8.599c-0.005-2.279-0.936-4.463-2.589-6.074s-3.894-2.519-6.233-2.524v0c-2.339 0.004-4.581 0.911-6.235 2.523s-2.586 3.796-2.59 6.076v0 12.566c0 0 17.645-1.915 17.647-12.564v-0.002z">
            </path>
            <path
                d="M-0 25.289c0.004 1.586 0.652 3.105 1.803 4.226s2.709 1.753 4.336 1.758v0c1.627-0.005 3.185-0.636 4.336-1.757s1.799-2.64 1.803-4.225v0-8.744c0 0-12.278 1.334-12.278 8.742zM6.139 26.856c-0.318 0-0.629-0.092-0.893-0.264s-0.47-0.417-0.592-0.703-0.154-0.601-0.091-0.905c0.062-0.304 0.215-0.583 0.44-0.802s0.511-0.368 0.823-0.429c0.312-0.060 0.635-0.029 0.929 0.089s0.545 0.319 0.721 0.577c0.177 0.258 0.271 0.561 0.271 0.87 0.001 0.206-0.040 0.411-0.121 0.601s-0.199 0.364-0.348 0.51c-0.149 0.146-0.327 0.262-0.522 0.341s-0.405 0.12-0.617 0.12v-0.006z">
            </path>
            <path
                d="M18.671 25.884h-1.256v1.297h-0.654v-3.174h2.067v0.53h-1.413v0.82h1.256v0.528zM21.815 25.666c0 0.312-0.055 0.587-0.166 0.822s-0.269 0.417-0.475 0.545c-0.205 0.128-0.44 0.192-0.706 0.192-0.263 0-0.498-0.063-0.704-0.19s-0.366-0.307-0.48-0.541c-0.113-0.235-0.171-0.506-0.172-0.811v-0.157c0-0.312 0.056-0.587 0.168-0.824 0.113-0.238 0.273-0.421 0.477-0.547 0.206-0.128 0.442-0.192 0.706-0.192s0.499 0.064 0.704 0.192c0.206 0.126 0.366 0.309 0.477 0.547 0.113 0.237 0.17 0.511 0.17 0.822v0.142zM21.152 25.522c0-0.333-0.060-0.586-0.179-0.759s-0.289-0.259-0.51-0.259c-0.219 0-0.389 0.086-0.508 0.257-0.119 0.17-0.18 0.42-0.181 0.75v0.155c0 0.324 0.060 0.576 0.179 0.754s0.291 0.268 0.515 0.268c0.22 0 0.388-0.086 0.506-0.257 0.118-0.173 0.177-0.424 0.179-0.754v-0.155zM23.936 26.348c0-0.124-0.044-0.218-0.131-0.283-0.087-0.067-0.244-0.137-0.471-0.209-0.227-0.074-0.406-0.147-0.539-0.218-0.36-0.195-0.541-0.457-0.541-0.787 0-0.172 0.048-0.324 0.144-0.458 0.097-0.135 0.236-0.241 0.416-0.316 0.182-0.076 0.385-0.113 0.61-0.113 0.227 0 0.429 0.041 0.606 0.124 0.177 0.081 0.315 0.197 0.412 0.347 0.099 0.15 0.148 0.32 0.148 0.51h-0.654c0-0.145-0.046-0.258-0.137-0.338-0.092-0.081-0.22-0.122-0.386-0.122-0.16 0-0.284 0.034-0.373 0.102-0.089 0.067-0.133 0.156-0.133 0.266 0 0.103 0.052 0.19 0.155 0.259 0.105 0.070 0.258 0.135 0.46 0.196 0.372 0.112 0.643 0.251 0.813 0.416s0.255 0.372 0.255 0.619c0 0.275-0.104 0.491-0.312 0.648-0.208 0.156-0.488 0.233-0.839 0.233-0.244 0-0.467-0.044-0.667-0.133-0.201-0.090-0.354-0.213-0.46-0.368-0.105-0.156-0.157-0.336-0.157-0.541h0.656c0 0.35 0.209 0.525 0.628 0.525 0.156 0 0.277-0.031 0.364-0.094 0.087-0.064 0.131-0.153 0.131-0.266zM27.427 24.536h-0.972v2.645h-0.654v-2.645h-0.959v-0.53h2.586v0.53zM29.712 25.805h-1.256v0.85h1.474v0.525h-2.128v-3.174h2.124v0.53h-1.469v0.757h1.256v0.512zM31.489 26.019h-0.521v1.162h-0.654v-3.174h1.18c0.375 0 0.664 0.084 0.868 0.251s0.305 0.403 0.305 0.709c0 0.217-0.047 0.397-0.142 0.543-0.093 0.144-0.235 0.259-0.425 0.344l0.687 1.297v0.030h-0.702l-0.595-1.162zM30.967 25.489h0.528c0.164 0 0.291-0.041 0.382-0.124 0.090-0.084 0.135-0.2 0.135-0.347 0-0.15-0.043-0.267-0.129-0.353-0.084-0.086-0.214-0.129-0.39-0.129h-0.525v0.953zM34.931 26.063v1.118h-0.654v-3.174h1.238c0.238 0 0.448 0.044 0.628 0.131 0.182 0.087 0.321 0.212 0.419 0.373 0.097 0.16 0.146 0.342 0.146 0.547 0 0.311-0.107 0.557-0.321 0.737-0.212 0.179-0.507 0.268-0.883 0.268h-0.573zM34.931 25.533h0.584c0.173 0 0.305-0.041 0.395-0.122 0.092-0.081 0.137-0.198 0.137-0.349 0-0.156-0.046-0.281-0.137-0.377s-0.218-0.145-0.379-0.148h-0.6v0.996zM39.069 25.805h-1.256v0.85h1.474v0.525h-2.128v-3.174h2.124v0.53h-1.469v0.757h1.256v0.512zM42.104 24.536h-0.972v2.645h-0.654v-2.645h-0.959v-0.53h2.586v0.53zM44.389 25.805h-1.256v0.85h1.474v0.525h-2.128v-3.174h2.124v0.53h-1.469v0.757h1.256v0.512zM46.166 26.019h-0.521v1.162h-0.654v-3.174h1.179c0.375 0 0.664 0.084 0.868 0.251s0.305 0.403 0.305 0.709c0 0.217-0.047 0.397-0.142 0.543-0.093 0.144-0.235 0.259-0.425 0.344l0.687 1.297v0.030h-0.702l-0.595-1.162zM45.645 25.489h0.528c0.164 0 0.291-0.041 0.382-0.124 0.090-0.084 0.135-0.2 0.135-0.347 0-0.15-0.043-0.267-0.129-0.353-0.084-0.086-0.214-0.129-0.39-0.129h-0.525v0.953zM49.489 26.348c0-0.124-0.044-0.218-0.131-0.283-0.087-0.067-0.244-0.137-0.471-0.209-0.227-0.074-0.406-0.147-0.538-0.218-0.36-0.195-0.541-0.457-0.541-0.787 0-0.172 0.048-0.324 0.144-0.458 0.097-0.135 0.236-0.241 0.416-0.316 0.182-0.076 0.385-0.113 0.61-0.113 0.227 0 0.429 0.041 0.606 0.124 0.177 0.081 0.315 0.197 0.412 0.347 0.099 0.15 0.148 0.32 0.148 0.51h-0.654c0-0.145-0.046-0.258-0.137-0.338-0.092-0.081-0.22-0.122-0.386-0.122-0.16 0-0.284 0.034-0.373 0.102-0.089 0.067-0.133 0.156-0.133 0.266 0 0.103 0.052 0.19 0.155 0.259 0.105 0.070 0.258 0.135 0.46 0.196 0.372 0.112 0.643 0.251 0.813 0.416s0.255 0.372 0.255 0.619c0 0.275-0.104 0.491-0.312 0.648-0.208 0.156-0.488 0.233-0.839 0.233-0.244 0-0.467-0.044-0.667-0.133-0.201-0.090-0.354-0.213-0.46-0.368-0.105-0.156-0.157-0.336-0.157-0.541h0.656c0 0.35 0.209 0.525 0.628 0.525 0.156 0 0.277-0.031 0.364-0.094 0.087-0.064 0.131-0.153 0.131-0.266z">
            </path>
        </symbol>
        <symbol id="icon-logo5" viewBox="0 0 40 32">
            <path
                d="M3.055 26.742c0.156 0.194 0.24 0.438 0.236 0.688 0.008 0.163-0.021 0.326-0.084 0.476s-0.159 0.285-0.281 0.393c-0.304 0.231-0.681 0.343-1.061 0.317h-1.865v-4.361h1.827c0.361-0.024 0.718 0.078 1.012 0.29 0.118 0.099 0.211 0.224 0.273 0.366s0.089 0.296 0.081 0.45c0.011 0.241-0.065 0.477-0.212 0.667-0.142 0.173-0.338 0.293-0.556 0.341 0.247 0.045 0.471 0.177 0.63 0.373zM0.868 26.084h0.781c0.177 0.013 0.354-0.038 0.496-0.145 0.059-0.053 0.104-0.12 0.133-0.193s0.041-0.153 0.034-0.233c0.006-0.079-0.006-0.158-0.035-0.232s-0.073-0.14-0.13-0.194c-0.147-0.11-0.329-0.162-0.511-0.147h-0.768v1.144zM2.222 27.756c0.063-0.055 0.112-0.123 0.144-0.2s0.046-0.16 0.041-0.243c0.005-0.084-0.010-0.168-0.042-0.246s-0.083-0.147-0.146-0.202c-0.153-0.114-0.341-0.17-0.53-0.158h-0.819v1.199h0.83c0.187 0.011 0.372-0.043 0.524-0.151z">
            </path>
            <path
                d="M6.79 28.617l-1.016-1.704h-0.382v1.704h-0.874v-4.361h1.655c0.417-0.029 0.83 0.104 1.152 0.371 0.231 0.237 0.371 0.549 0.393 0.879s-0.073 0.659-0.27 0.925c-0.204 0.235-0.483 0.391-0.789 0.443l1.082 1.743h-0.951zM5.392 26.318h0.715c0.497 0 0.745-0.22 0.745-0.66 0.005-0.090-0.008-0.18-0.040-0.264s-0.080-0.161-0.143-0.226c-0.157-0.131-0.359-0.195-0.562-0.177h-0.724l0.008 1.327z">
            </path>
            <path
                d="M11.568 27.739h-1.742l-0.308 0.878h-0.917l1.6-4.312h0.991l1.593 4.312h-0.917l-0.301-0.878zM11.335 27.079l-0.637-1.841-0.637 1.841h1.273z">
            </path>
            <path d="M17.55 28.617h-0.868l-1.946-2.965v2.965h-0.866v-4.361h0.866l1.946 2.983v-2.983h0.868v4.361z">
            </path>
            <path
                d="M22.502 27.573c-0.179 0.329-0.453 0.597-0.785 0.769-0.378 0.192-0.797 0.286-1.22 0.275h-1.545v-4.361h1.545c0.422-0.011 0.841 0.081 1.22 0.268 0.332 0.168 0.606 0.433 0.785 0.761 0.179 0.355 0.272 0.747 0.272 1.144s-0.093 0.789-0.272 1.144zM21.509 27.469c0.248-0.29 0.384-0.659 0.384-1.041s-0.136-0.751-0.384-1.041c-0.299-0.262-0.69-0.396-1.086-0.371h-0.603v2.823h0.603c0.397 0.025 0.787-0.108 1.086-0.371z">
            </path>
            <path d="M12.111 0c0 0 11.201 4.246 10.963 10.39v10.392c0 0-11.193-4.248-10.959-10.392l-0.004-10.39z">
            </path>
            <path d="M33.054 18.349c2.115-1.462 4.562-2.367 7.117-2.633v-3.253c-2.943 1.139-5.44 3.204-7.117 5.886z">
            </path>
            <path
                d="M31.783 19.329c1.731-3.5 4.733-6.202 8.388-7.548v-9.374c0 0-15.952 6.048-15.614 14.797v14.795c0 0 0.711-0.27 1.829-0.778 0-0.473 0-0.95 0.051-1.43 0.33-4.062 2.253-7.826 5.347-10.464z">
            </path>
            <path
                d="M30.266 24.825c0.084-1.026 0.271-2.041 0.558-3.029-1.926 2.279-3.093 5.106-3.335 8.085-0.023 0.281-0.036 0.562-0.042 0.852 0.906-0.437 1.96-0.982 3.068-1.623-0.283-1.409-0.366-2.851-0.248-4.284z">
            </path>
            <path
                d="M30.9 24.878c-0.106 1.296-0.040 2.601 0.197 3.879 4.358-2.618 9.255-6.664 9.067-11.553v-0.426c-3.114 0.35-6.027 1.716-8.292 3.89-0.53 1.347-0.858 2.766-0.972 4.21z">
            </path>
        </symbol>
        <symbol id="icon-logo6" viewBox="0 0 62 32">
            <path
                d="M31.124 14.854c-0.291-0.424-0.43-0.926-0.397-1.431v-2.075c0-0.636 0.132-1.119 0.395-1.45s0.715-0.495 1.356-0.494c0.602 0 1.029 0.141 1.282 0.422 0.276 0.359 0.41 0.798 0.379 1.241v0.488h-1.077v-0.494c0.004-0.162-0.007-0.323-0.031-0.483-0.016-0.109-0.070-0.211-0.154-0.287-0.111-0.082-0.25-0.122-0.39-0.112-0.148-0.010-0.294 0.032-0.41 0.118-0.094 0.085-0.156 0.196-0.178 0.317-0.031 0.169-0.045 0.341-0.042 0.513v2.518c-0.017 0.243 0.031 0.486 0.138 0.707 0.054 0.075 0.128 0.134 0.215 0.171s0.183 0.051 0.278 0.040c0.138 0.011 0.275-0.030 0.381-0.114 0.088-0.082 0.144-0.19 0.161-0.306 0.025-0.167 0.036-0.336 0.033-0.505v-0.511h1.077v0.466c0.030 0.462-0.101 0.92-0.372 1.304-0.247 0.308-0.669 0.462-1.289 0.462s-1.088-0.165-1.353-0.507z">
            </path>
            <path
                d="M35.607 14.876c-0.272-0.323-0.408-0.794-0.408-1.416v-2.182c0-0.616 0.136-1.083 0.408-1.399s0.727-0.474 1.364-0.473c0.633 0 1.086 0.158 1.358 0.473 0.272 0.317 0.41 0.783 0.41 1.399v2.182c0 0.616-0.138 1.089-0.415 1.414s-0.727 0.488-1.353 0.488c-0.626 0-1.090-0.165-1.364-0.485zM37.474 14.352c0.097-0.202 0.142-0.424 0.129-0.646v-2.672c0.013-0.218-0.031-0.435-0.127-0.633-0.055-0.076-0.131-0.137-0.22-0.174s-0.187-0.050-0.284-0.037c-0.097-0.013-0.195 0-0.285 0.037s-0.166 0.097-0.221 0.174c-0.098 0.198-0.142 0.415-0.129 0.633v2.685c-0.014 0.222 0.031 0.444 0.129 0.646 0.063 0.068 0.14 0.123 0.227 0.16s0.181 0.057 0.277 0.057c0.096 0 0.19-0.019 0.277-0.057s0.164-0.092 0.227-0.16v-0.013z">
            </path>
            <path
                d="M40.035 9.468h1.159l0.872 4.027 0.892-4.027h1.128l0.114 5.812h-0.834l-0.089-4.040-0.861 4.040h-0.669l-0.892-4.054-0.082 4.054h-0.843l0.105-5.812z">
            </path>
            <path
                d="M45.5 9.468h1.806c1.040 0 1.561 0.55 1.561 1.65 0 1.054-0.548 1.58-1.643 1.579h-0.615v2.583h-1.115l0.007-5.812zM47.042 11.952c0.11 0.013 0.222 0.004 0.328-0.028s0.203-0.085 0.285-0.156c0.128-0.196 0.184-0.427 0.16-0.656 0.006-0.177-0.012-0.355-0.053-0.528-0.016-0.058-0.044-0.112-0.082-0.159s-0.086-0.087-0.141-0.117c-0.155-0.070-0.326-0.102-0.497-0.093h-0.432v1.737h0.432z">
            </path>
            <path
                d="M50.474 9.468h1.197l1.228 5.812h-1.039l-0.243-1.34h-1.068l-0.25 1.34h-1.055l1.228-5.812zM51.497 13.267l-0.417-2.44-0.417 2.44h0.834z">
            </path>
            <path d="M53.892 9.468h0.78l1.494 3.316v-3.316h0.925v5.812h-0.742l-1.503-3.461v3.461h-0.957l0.002-5.812z">
            </path>
            <path d="M59.258 13.064l-1.242-3.588h1.046l0.758 2.305 0.711-2.305h1.023l-1.226 3.588v2.216h-1.070v-2.216z">
            </path>
            <path d="M32.845 17.822v0.304h-0.91v2.362h-0.381v-2.362h-0.914v-0.304h2.205z"></path>
            <path
                d="M35.697 20.488h-0.294c-0.030 0.002-0.059-0.007-0.083-0.025-0.022-0.015-0.039-0.037-0.049-0.061l-0.263-0.633h-1.262l-0.263 0.633c-0.007 0.026-0.021 0.051-0.040 0.072-0.023 0.018-0.053 0.027-0.083 0.025h-0.294l1.115-2.666h0.388l1.128 2.655zM33.85 19.498h1.052l-0.446-1.085c-0.033-0.082-0.060-0.166-0.083-0.251-0.016 0.051-0.029 0.099-0.042 0.141l-0.040 0.112-0.441 1.083z">
            </path>
            <path
                d="M37.618 20.226c0.070 0.003 0.14 0.003 0.21 0 0.060-0.006 0.12-0.016 0.178-0.032 0.055-0.013 0.108-0.029 0.16-0.049 0.049-0.019 0.098-0.042 0.149-0.065v-0.599h-0.446c-0.011 0.001-0.022-0.001-0.032-0.005s-0.020-0.009-0.028-0.017c-0.007-0.006-0.013-0.014-0.017-0.022s-0.006-0.018-0.005-0.027v-0.205h0.865v1.022c-0.071 0.048-0.145 0.090-0.223 0.127-0.080 0.037-0.162 0.068-0.247 0.091-0.091 0.025-0.184 0.044-0.279 0.055-0.108 0.011-0.217 0.017-0.325 0.017-0.192 0.002-0.383-0.032-0.562-0.099-0.167-0.064-0.319-0.158-0.446-0.279-0.124-0.122-0.222-0.265-0.288-0.422-0.070-0.177-0.105-0.364-0.103-0.553-0.002-0.19 0.032-0.379 0.1-0.557 0.064-0.158 0.162-0.302 0.288-0.422 0.127-0.12 0.279-0.214 0.446-0.277 0.191-0.068 0.394-0.102 0.597-0.099 0.104-0 0.207 0.008 0.31 0.023 0.091 0.014 0.179 0.037 0.265 0.068 0.078 0.028 0.153 0.063 0.223 0.106 0.068 0.042 0.133 0.088 0.194 0.139l-0.107 0.165c-0.008 0.015-0.021 0.028-0.036 0.037s-0.033 0.014-0.051 0.014c-0.025-0.001-0.049-0.008-0.069-0.021-0.033-0.017-0.069-0.038-0.109-0.063-0.047-0.028-0.097-0.052-0.149-0.072-0.066-0.025-0.135-0.045-0.205-0.059-0.093-0.016-0.188-0.024-0.283-0.023-0.147-0.002-0.293 0.023-0.43 0.074-0.124 0.047-0.236 0.119-0.328 0.211-0.092 0.096-0.163 0.209-0.207 0.331-0.1 0.289-0.1 0.6 0 0.889 0.049 0.125 0.125 0.24 0.223 0.336 0.091 0.091 0.202 0.163 0.325 0.211 0.142 0.046 0.292 0.064 0.441 0.053z">
            </path>
            <path d="M41.172 20.184h1.217v0.304h-1.59v-2.666h0.381l-0.009 2.362z"></path>
            <path d="M43.656 20.488h-0.381v-2.666h0.381v2.666z"></path>
            <path
                d="M45.074 17.834c0.023 0.012 0.042 0.029 0.058 0.049l1.63 2.009c-0.002-0.032-0.002-0.063 0-0.095 0-0.030 0-0.059 0-0.087v-1.9h0.332v2.676h-0.192c-0.028 0.002-0.057-0.003-0.083-0.015-0.023-0.013-0.044-0.030-0.060-0.051l-1.628-2.007c0 0.032 0 0.061 0 0.091s0 0.057 0 0.082v1.9h-0.319v-2.666h0.198c0.022 0 0.043 0.004 0.062 0.013z">
            </path>
            <path d="M49.901 17.822v0.293h-1.351v0.88h1.095v0.283h-1.095v0.91h1.351v0.293h-1.743v-2.659h1.743z"></path>
            <path
                d="M9.95 1.359l16.929 4.551v15.946l-16.929-4.548v-15.948zM8.864 0v18.082l19.098 5.135v-18.080l-19.098-5.137z">
            </path>
            <path d="M19.1 31.611l-19.1-5.139v-18.080l19.1 5.137v18.082z"></path>
            <path
                d="M9.181 1.155l16.708 4.493-7.105 6.729-16.71-4.496 7.108-6.726zM8.864 0l-8.864 8.392 19.1 5.137 8.862-8.392-19.098-5.137z">
            </path>
            <path d="M20.175 30.593l7.788-7.374-7.788-2.096v9.47z"></path>
        </symbol>

<symbol id="icon-close"  viewBox="0 0 11 11" 
            xmlns="http://www.w3.org/2000/svg">
            <path d="M11 1.10786L9.89214 0L5.5 4.39214L1.10786 0L0 1.10786L4.39214 5.5L0 9.89214L1.10786 11L5.5 6.60786L9.89214 11L11 9.89214L6.60786 5.5L11 1.10786Z" />
        </symbol>
        <symbol id="icon-subscribe" viewBox="0 0 32 32">
            <path fill="#fff" style="fill: var(--color1, #fff)"
                d="M32 0l-32 18 10.227 3.787 15.773-14.787-12 16.187v8.813l5.733-6.693 7.267 2.693 5-28z"></path>
        </symbol>

       <symbol id="modal-close" width="18" height="18" xmlns="http://www.w3.org/2000/svg"><path d="M15 4.1L13.9 3 9.5 7.4 5.1 3 4 4.1l4.4 4.4L4 12.9 5.1 14l4.4-4.4 4.4 4.4 1.1-1.1-4.4-4.4L15 4.1z" /></symbol>

<!-- <symbol id="icon-close" viewBox="0 0 32 32"><path d="M26.667 7.303l-1.97-1.97-7.808 7.808-7.808-7.808-1.97 1.97 7.808 7.808-7.808 7.808 1.97 1.97 7.808-7.808 7.808 7.808 1.97-1.97-7.808-7.808 7.808-7.808z"/></symbol> -->




</defs></svg>